<svg xmlns="http://www.w3.org/2000/svg" width="1670" height="388" viewBox="0 0 442 102">
  <path d="M266.48 2.33c-8.56.1-16.29 5.12-19.23 12.88-1.4 3.66-1.42 10.04-.06 13.02a14.99 14.99 0 0010.7 8.24c10.27 2.02 20.17-2.56 24.21-11.2 1.87-3.98 2.22-9.7.84-13.37-1.91-5.04-6.4-8.32-12.75-9.3a22.5 22.5 0 00-3.7-.27zm43.24.03c-1.55 0-3.09.18-4.55.52-8.46 2-14.16 7.63-15.71 15.54-1.71 8.73 2.53 15.55 11.1 17.86 6.32 1.7 13.87.17 18.33-3.71l1.54-1.34-2.6-2.33-2.58-2.34-2.4 1.45c-4.84 2.9-9.8 2.35-12.69-1.42-1.4-1.86-1.88-5.77-1.06-8.8.78-2.92 3.06-5.9 5.4-7.1 3-1.54 7.03-1.5 9.76.1 1.1.65 2 1.37 2 1.6 0 .87 1 .35 4.04-2.07l3.11-2.48-1.74-1.62c-2.62-2.45-7.3-3.88-11.95-3.86zm-286.47.2c-3.84.01-5.36.21-7.43.96C6.9 6.78 1.85 14.32 2.5 23.42 2.97 30 7.02 34.56 14.03 36.38c3.2.83 9.9.46 13.01-.7a17.36 17.36 0 004.47-2.69l1.98-1.74-2.6-2.48-2.6-2.49-.99.9c-3.56 3.26-9.4 3.51-12.78.55-2.14-1.87-2.61-3.37-2.38-7.44.17-2.88.43-3.85 1.5-5.57a13.32 13.32 0 013.03-3.31c3.54-2.47 8.95-2.4 11.87.17 1.68 1.48 1.5 1.53 5.42-1.56l2.8-2.2-1.85-1.66c-3.03-2.69-5.99-3.6-11.66-3.58zm62.3.52l-3.28 16.5-3.3 16.5h9.35l.84-4.28.83-4.28 2.46-.13 2.46-.13 2.4 4.3 2.4 4.3 4.68.12c2.57.07 4.67.03 4.67-.1 0-.12-.9-1.75-2.02-3.63-3.67-6.2-3.58-5.6-.93-6.84a12.91 12.91 0 007.67-10.84c.41-4.6-1.76-8.18-6.15-10.15-2.15-.97-2.92-1.04-12.18-1.19l-9.9-.15zm37.78 0l-3.2 16.17c-1.76 8.9-3.2 16.32-3.18 16.5 0 .18 2.06.33 4.57.33h4.55l.84-4.28.83-4.28 6.36-.26c5.05-.21 6.86-.46 8.83-1.23 3.12-1.2 6-3.72 7.35-6.4 1.26-2.54 1.7-6.89.93-9.23-.78-2.35-3.14-4.77-5.83-5.98-2.15-.97-2.92-1.04-12.17-1.19l-9.88-.15zm275.66.04l-3.2 16.15a856.89 856.89 0 00-3.17 16.5c0 .18 1.83.28 4.06.21l4.04-.12L402.5 27c.98-4.87 1.89-8.96 2.02-9.1.13-.13 1.7 3.22 3.5 7.44l3.25 7.66h3.71l4.85-6.32c4.06-5.3 5-6.29 5.77-6.09.5.14 1 .48 1.12.77.1.28-.4 3.56-1.13 7.29-.74 3.72-1.34 6.92-1.34 7.1 0 .18 1.83.33 4.08.33h4.07l3.18-16.14c1.74-8.87 3.17-16.28 3.16-16.46 0-.18-1.76-.33-3.9-.33h-3.89l-7.77 9.88c-4.28 5.43-7.91 9.88-8.07 9.88-.17 0-2.09-4.4-4.28-9.77l-3.98-9.77-3.93-.12-3.92-.13zm-238.44.03l-3.29 16.46-3.29 16.47h26.96l.66-3.3.65-3.29h-17.88l.2-.99c.12-.54.44-2.12.7-3.5l.5-2.53h15.19l.26-1.65c.14-.9.39-2.29.55-3.07l.28-1.43h-7.54c-6.98 0-7.53-.06-7.33-.77.12-.42.44-1.9.72-3.29l.5-2.52h8.52c8.47 0 8.52 0 8.74-.99a83.04 83.04 0 001.1-5.27c0-.18-5.89-.33-13.1-.33h-13.1zm72.86 0l-1.66 8.45a209.4 209.4 0 01-1.96 9.29c-.23.64-1.61-1.31-5.97-8.44l-5.67-9.27-4.06-.01c-2.24-.01-4.06.04-4.06.11 0 .2-6.11 30.73-6.37 31.8-.23.98-.18 1 4.32 1h4.56l1.66-8.45c.92-4.65 1.8-8.81 1.95-9.25.2-.58 1.76 1.63 5.95 8.45l5.68 9.25h4.07c2.24 0 4.07-.06 4.07-.13 0-.21 6.11-30.73 6.37-31.8.23-.99.18-1-4.32-1h-4.56zm95.29 0l-.52 2.8a40.05 40.05 0 00-.51 3.29c0 .34 1.57.5 5.05.5 2.77 0 5.04.15 5.04.35 0 .19-1.15 6.11-2.57 13.16l-2.57 12.83h9.43l2.55-13.16 2.55-13.16 5.28-.12 5.27-.12.55-2.64c.3-1.44.55-2.88.56-3.18.02-.43-3.27-.55-15.04-.55H328.7zm36.05 0l-3.2 16.14a884.2 884.2 0 00-3.17 16.46c0 .18 6.01.33 13.34.33h13.33l.66-3.3.65-3.29h-8.96c-8.33 0-8.95-.05-8.74-.77.12-.42.45-2 .74-3.5l.52-2.75H385.05l.5-2.49c.27-1.37.5-2.75.5-3.07 0-.47-1.53-.59-7.4-.59h-7.4l.66-3.28.65-3.28 8.6-.12 8.59-.12.54-2.64c.3-1.44.56-2.88.57-3.18.01-.43-2.88-.55-13.05-.55h-13.06zM62.9 3.22l-1.99.03-5.13.12L45.57 19.4c-5.62 8.82-10.23 16.18-10.24 16.36 0 .18 2.05.33 4.57.33h4.59L46.16 33l1.67-3.07h7.74c8.78-.01 7.87-.45 8.52 4.05l.3 2.09h4.56c2.81 0 4.56-.18 4.56-.45 0-.25-1.68-7.55-3.73-16.24-2.05-8.68-3.73-15.89-3.73-16.02 0-.1-1.3-.16-3.14-.15zm203.05 6.4c5.37-.07 8.28 2.93 8.23 8.5-.05 5.39-2.98 9.89-7.28 11.16-2.54.76-3.85.77-5.99.07-3.51-1.17-5.24-3.73-5.24-7.77 0-7.17 4.03-11.86 10.28-11.95zm-130.88.17c4.7-.03 6.9 1.61 6.9 5.1 0 2.55-1.08 4.32-3.16 5.15-2.14.86-9.57.95-9.54.12 0-.3.46-2.72 1-5.37l.99-4.83 2.83-.14.98-.03zm-37.43.02c4.8.02 6.85 1.82 6.49 5.65-.24 2.45-1.16 3.75-3.3 4.65-1.86.8-9.34.83-9.31.05 0-.3.46-2.72 1-5.37l.99-4.83 3.13-.13c.35-.02.68-.02 1-.02zm-38.17.7l.03.02c.15.17.71 2.77 1.25 5.8.54 3.01 1.08 5.92 1.2 6.47.23.98.2.98-5.12.98h-5.35l1.05-1.86c4.56-8.07 6.61-11.44 6.94-11.4zm53.68 40.9l.16 1.22c.61 4.72 3.65 30.62 3.65 31.13 0 .52.97.6 5.6.5l5.59-.12 5.44-10.48c3.52-6.8 5.54-10.27 5.75-9.88.18.33.78 5.1 1.34 10.6l1.02 9.98h5.52l5.51-.02 8.34-16.1c4.59-8.85 8.4-16.25 8.49-16.45.08-.2-1.82-.35-4.23-.35h-4.37l-6.05 11.64c-3.33 6.4-6.13 11.55-6.22 11.46-.17-.17-2.31-20.81-2.32-22.33 0-.69-.52-.77-4.58-.77h-4.57l-3.6 6.91c-7.27 13.95-8.52 16.15-8.68 15.33-.09-.44-.69-5.57-1.33-11.41l-1.18-10.61-4.64-.13-4.64-.12zm62.4.03l-3.2 16.13a884.96 884.96 0 00-3.18 16.46c.01.18 2.08.33 4.58.33 4.37 0 4.58-.04 4.8-.99.14-.54 1.55-7.6 3.14-15.69 1.6-8.09 3-15.05 3.13-15.47.21-.7-.2-.77-4.52-.77h-4.76zm41.17 0l-1.66 8.45c-.92 4.65-1.8 8.83-1.97 9.29-.22.64-1.6-1.3-5.96-8.43l-5.67-9.27-4.06-.02c-3.84-.02-4.06.03-4.28.97-.26 1.07-6.37 31.6-6.37 31.8 0 .07 2.03.13 4.51.13h4.52l1.7-8.67a145.3 145.3 0 011.96-9.2c.16-.31 2.7 3.39 5.96 8.66l5.68 9.21h4.08c2.24 0 4.07-.07 4.07-.16 0-.23 6.1-30.64 6.37-31.77.23-.98.18-1-4.32-1h-4.56zm14.82 0l-.22.99a83.04 83.04 0 00-1.1 5.26c0 .19 2.26.33 5.04.33 4.57 0 5.04.08 5.04.8 0 .43-1.08 6.2-2.41 12.81a608.18 608.18 0 00-2.41 12.38c0 .2 2.07.35 4.6.35 2.54 0 4.61-.06 4.61-.13 0-.21 4.8-24.12 5.05-25.22.23-.95.4-.99 5.44-.99h5.2l.65-3.29.66-3.3h-30.15zm36 0l-.24.99a4286 4286 0 00-6.36 31.8c0 .07 6.02.13 13.38.13h13.38l.22-.99a83.2 83.2 0 001.1-5.26c0-.19-3.94-.33-8.77-.33-9.98 0-9.15.42-8.2-4.17l.55-2.64 7.53-.12c8.3-.13 7.63.13 8.24-3.17.16-.84.38-1.88.5-2.3.2-.71-.35-.77-7.27-.77-5.71 0-7.5-.13-7.48-.55.01-.3.27-1.73.57-3.18l.55-2.64 8.59-.12 8.6-.12.65-3.28.65-3.28h-26.2zm43.12 0c-8.85 0-8.89 0-9.12.99a4286 4286 0 00-6.37 31.8c0 .07 2.08.13 4.6.13 4.42 0 4.62-.04 4.84-.99.35-1.5 1.54-7.38 1.54-7.6 0-.1 1.13-.18 2.52-.18l2.53.02 2.4 4.37 2.4 4.38h9.41l-2.6-4.55c-1.44-2.5-2.61-4.72-2.61-4.93 0-.22.84-.74 1.88-1.17a13.43 13.43 0 006.32-5.47c.95-1.63 1.21-2.7 1.35-5.57.14-3.06.02-3.82-.85-5.52a10.46 10.46 0 00-2.79-3.2c-3-2.07-5.61-2.5-15.45-2.5zm-.92 6.48l3.86.18c4.58.22 5.89.9 6.64 3.42a5.66 5.66 0 01-2.7 6.61c-1.34.68-2.58.87-5.89.87-2.3 0-4.18-.09-4.18-.2 0-.1.28-1.43.62-2.96.34-1.52.85-3.93 1.14-5.34l.51-2.58z" fill="#DCE6EF" stroke="#DCE6EF" stroke-width="1"/>
  <path d="M23.51 16c-4.05 0-7.76.78-11.08 2.34-.18.81-.28 1.66-.32 2.54l.26-.14a23.2 23.2 0 0111.14-2.62c3.3 0 6.16.6 8.64 1.77h.01c2.16 1 3.7 2.4 4.85 4.1l-5.84 4.57 1.55 1.48 7.15-5.6-.45-.8a13.72 13.72 0 00-6.37-5.66A22.06 22.06 0 0023.5 16zm243.63 0a26 26 0 00-11 2.29c-.18.82-.3 1.67-.35 2.54l.27-.14a23.45 23.45 0 0111.08-2.57c2.58 0 4.88.35 6.93 1.05a15.78 15.78 0 00.05-2.21 24.1 24.1 0 00-6.98-.96zm43.12 0c-4.06 0-7.76.78-11.09 2.34-.18.81-.28 1.66-.32 2.54l.27-.14a23.2 23.2 0 0111.14-2.62c3.29 0 6.15.6 8.64 1.77 2.16 1 3.7 2.4 4.85 4.1l-5.83 4.57 1.54 1.48 5.64-4.41-.53 2.6h9.4l.41-2.12h-7.22l1.45-7.18h7.2l.42-2.12h-9.35l-1.22 6.03a13.93 13.93 0 00-5.87-4.86 22.06 22.06 0 00-9.53-1.98zm-254.5.81l-3.93 6.85h.92l3.01-4.73H61l-.4-2.12zm36.6 0l-.43 2.12h8.5c.69 0 1.35.03 1.99.07a5.13 5.13 0 001.32-2 27.98 27.98 0 00-3.32-.19zm37.8 0l-.43 2.12h8.34c.75 0 1.46.03 2.14.08a5.13 5.13 0 001.33-2c-1.1-.13-2.25-.2-3.47-.2zm52.08 0l-.43 2.12h5.28l-1.4 6.92h-17.12l-.17.86-.53 2.74h2.15l.3-1.48h17.1l2.26-11.16zm57.74 0l-.43 2.12h3.2l-6.45 32.26h2.16l6.88-34.38h-1.3zm106.08 0l-.42 2.12h13.63l-1.45 7.18H347.4l-5.23 26.26h-9.83l3.18-16h-2.16l-3.6 18.12h14.14l5.24-26.27h10.35l2.28-11.4zm40.37 0l-.42 2.12h5.28l-1.4 6.92h-17.13l-.17.86-.53 2.74h2.16l.28-1.48h17.12l2.26-11.16zm50.02 0l-.42 2.12h3.16l-6.6 33.44h-8.76l2.9-14.94-1.88-.85-9.69 12.6h-4.06l-6.55-15.3-3.7 18.5h-8.76l3.2-16h-2.17l-3.62 18.1h13.08l2.7-13.5 4.43 10.3h6.5l7.59-9.86-2.54 13.07h13.08l7.42-37.68h-1.28zm-31.9 1.07l-.21 1.05h.66zm-188.2.14l-.18.9h.74zm-104.03 2.42a12.49 12.49 0 01-1.25 1.71c2.08 1.8 3.08 4.18 3.08 7.4 0 2.96-.78 5.48-2.34 7.67a13.68 13.68 0 01-6.58 4.86l-1.16.43 5.65 9.86h-10l-5.03-8.94h-4.43l-1.78 8.94h-9.83l3.2-16H79.7l-3.31 16.6-3.94-16.6h-2.17l3.8 16h-9.73l-1.17-6.2H48.12l-3.56 6.2h-10.1l14.14-22.2h-.49l-3.55 6.2h-2.42l-6.23 9.78-7.61-7.28-.73.88c-2.12 2.57-4.41 3.73-7.1 3.73-2 0-3.46-.54-4.6-1.59a5.63 5.63 0 01-1.66-4.3c0-.32.01-.62.03-.91-.72-.15-1.41-.34-2.08-.57-.04.48-.07.97-.07 1.47 0 2.32.78 4.35 2.3 5.84h.01l.01.02a8.67 8.67 0 006.05 2.16c3 0 5.68-1.33 7.95-3.7l5.53 5.3a16.5 16.5 0 01-5.95 4.44 22.51 22.51 0 01-8.7 1.55 21.1 21.1 0 01-9.14-1.88 14.4 14.4 0 01-5.96-5.25 14.29 14.29 0 01-2.07-7.72c0-3.23.6-6.14 1.8-8.75-.46-.8-.82-1.63-1.1-2.5A22.48 22.48 0 000 38.33c0 3.29.8 6.26 2.4 8.84a16.62 16.62 0 006.83 6.03h.01c2.94 1.4 6.3 2.1 10.06 2.1 3.56 0 6.73-.57 9.5-1.71a17.2 17.2 0 003.7-2.11l-1.9 3h15.19l3.55-6.2h12.07l1.17 6.2h27.64L92 45.55h1.46l5.02 8.94h14.81l-.02-.2-6.2-10.81a15.6 15.6 0 006.46-5.03 15 15 0 002.74-8.9c0-3.76-1.35-6.9-3.95-9.1zm37.86.05l-.29.46c-.29.45-.6.88-.94 1.28 2.02 1.82 3 4.2 3 7.43 0 2.8-.69 5.2-2.06 7.29a13.22 13.22 0 01-5.85 4.9 21.23 21.23 0 01-9.01 1.78H128l-1.73 8.74h-3.55l.24 2.12h5.05l1.73-8.74h5.28c3.7 0 7.02-.65 9.89-1.98a15.43 15.43 0 006.74-5.67c1.6-2.44 2.4-5.3 2.4-8.44 0-3.78-1.31-6.93-3.88-9.17zm276.1.73l-10.6 13.46-.62-1.5h-2.3l2.33 5.67 10.96-13.92.68-3.5zm-143.03 2c-.26.85-.57 1.68-.93 2.48a14.4 14.4 0 011.8 7.26c0 3.97-.92 7.45-2.75 10.53a18.5 18.5 0 01-7.56 7.12c-.39.2-.78.4-1.18.58h4.33a20.5 20.5 0 006.23-6.62 22.38 22.38 0 003.04-11.61 16.5 16.5 0 00-2.98-9.74zM22.75 25.7a9.88 9.88 0 00-7.04 2.7c.68.4 1.42.7 2.22.9.13-.1.27-.18.4-.27a8.05 8.05 0 014.42-1.21c1 0 1.9.14 2.69.43.65-.37 1.28-.81 1.89-1.33a8.83 8.83 0 00-4.58-1.22zm243.38 0a9.7 9.7 0 00-5.58 1.66h-.01c-.46.33-.89.7-1.29 1.1.67.4 1.4.69 2.2.88l.3-.24a7.43 7.43 0 014.38-1.28c1.05 0 1.93.15 2.67.45a10.2 10.2 0 001.83-1.42 8.59 8.59 0 00-4.5-1.15zm43.36 0a9.88 9.88 0 00-7.04 2.7c.68.4 1.42.7 2.22.9l.4-.27a8.05 8.05 0 014.42-1.21c1 0 1.9.14 2.7.43a11.7 11.7 0 001.88-1.33 8.83 8.83 0 00-4.58-1.22zm-19.93 1.39a22.48 22.48 0 00-2.82 11.25c0 3.29.8 6.26 2.4 8.84a16 16 0 003.62 4.01H294l-.16.8a20 20 0 002.13 1.22h.01c1.5.72 3.09 1.24 4.79 1.59l.41-2.08a18.6 18.6 0 01-4.28-1.41 14.4 14.4 0 01-5.97-5.25 14.29 14.29 0 01-2.07-7.72c0-3.23.6-6.14 1.8-8.75-.45-.8-.82-1.63-1.1-2.5zm-149.27 0a24.2 24.2 0 01-5.26.55h-3.83l-1.78 8.86h6.22c1.83 0 3.4-.46 4.56-1.48V35h.02a5.7 5.7 0 001.7-4.29c0-1.42-.49-2.7-1.5-3.53l-.13-.1zm106.2.01a22.49 22.49 0 00-2.8 11.24c0 3.28.77 6.25 2.33 8.83v.01a15.76 15.76 0 003.56 4.01h3.88a14.05 14.05 0 01-5.63-5.12 14.56 14.56 0 01-2.03-7.73c0-3.22.6-6.1 1.77-8.7-.44-.8-.8-1.65-1.08-2.54zm-153.05.33l-1.83 9.07h6.22c.66 0 1.28-.06 1.86-.18l-1.1-1.97c-.24.02-.49.04-.76.04H94.2l1.16-5.77-.67-1.19zm39.81.74h3.15c1.35 0 2.2.29 2.69.67.47.39.72.9.72 1.88 0 1.27-.35 2.09-1.03 2.72-.68.6-1.66.95-3.14.95H132zm49.1 1.85l-.42 2.12h.44l-1.3 6.51h-15.1l-1.32 6.8h17.82l-1.16 5.74h2.16l1.59-7.86h-17.84l.5-2.56h15.08l2.16-10.75zm204.2 0l-.43 2.12h.44l-1.3 6.51h-15.09l-1.33 6.8h17.82l-1.4 6.92h-27.4l3.2-16h-2.17l-3.62 18.12H387l2.26-11.16h-17.84l.5-2.56H387l2.15-10.75zm-329.27.16l-5.45 9.47h10.06l-.23-1.25-1.57-8.22zm1.1 2.32l.96 5.04h-3.85zm157.98 1.52l-3.66 18.35h-9.53l3.2-16h-2.16l-2.96 14.82h.29l2.03 3.3h10.86l2.95-14.78 7.07 11.48h1.58l-.38 1.94.84 1.36h4.17l.43-2.12h-3.42zm57.77.42l-.31.17c-.63.33-1.26.63-1.92.9a11.54 11.54 0 01-.9 3.16 8.25 8.25 0 01-2.88 3.53h-.01a7.2 7.2 0 01-4.32 1.28c-1.96 0-3.34-.53-4.38-1.57-1-1.04-1.52-2.39-1.52-4.28 0-.3.01-.61.03-.91a19.2 19.2 0 01-2.08-.55c-.04.48-.07.97-.07 1.46 0 2.3.7 4.3 2.13 5.77l.01.01c1.47 1.47 3.51 2.19 5.88 2.19a9.4 9.4 0 005.54-1.67 10.38 10.38 0 003.6-4.4c.71-1.57 1.1-3.28 1.2-5.09zm24.77 1.68c-.04.47-.07.96-.07 1.46 0 2.32.78 4.35 2.3 5.84h.01l.02.02a8.67 8.67 0 006.05 2.16c2.99 0 5.67-1.33 7.94-3.7l5.53 5.3a17.38 17.38 0 01-4.98 3.99h.87c1.02 0 1.97.05 2.87.15a21.09 21.09 0 003.57-3.5l.62-.75-8.59-8.22-.72.88c-2.13 2.57-4.42 3.73-7.11 3.73-2 0-3.46-.54-4.6-1.59a5.63 5.63 0 01-1.66-4.3c0-.32.01-.62.03-.91-.72-.15-1.4-.34-2.08-.56zm-181.4.25l-2.97 14.82h2.16l2.96-14.82zm37.2 0l-3.62 18.12h8.01l1.1-2.12h-6.53l3.2-16zm74.31 0l.56.9.18-.9zm-59.42 16l-1.1 2.12h6.23l.43-2.12zm97.33.5a26.82 26.82 0 01-5.33.29l-.43 2.1a29.26 29.26 0 005.32-.19zm-156.41 12.2l4.52 37.68h14.43l8.44-16.21 1.76 16.2h14.44l17.82-34.27.69-3.4h-9.62l-1.1 2.12h8.32l-17.4 33.44h-11.25l-2.3-21.28-11.08 21.28h-11.27L112.9 67.2h1.92l-.26-2.12zm13.65 0l1 8.9.27-.52-.95-8.38zm14.2 0l-1.1 2.12h2.4l-.22-2.12zm9.47 0l.91 9.28.46-.89-.83-8.39zm34.6 0l-.42 2.12h3.2l-6.69 33.44h-9.83l3.2-16h-2.16l-3.62 18.12h14.15l7.54-37.68zm40.83 0l-.42 2.12h3.2l-6.7 33.44h-8.39l-11.31-18.35-3.66 18.35h-9.52l3.2-16h-2.17l-3.62 18.12h13.85l2.94-14.77 9.11 14.77h11.31l7.54-37.68h-1.3zm6.33 0l-2.3 11.42h9.39l.42-2.12h-7.22l1.45-7.18h7.2l.42-2.12zm19.19 0l-.42 2.12h13.62l-1.45 7.18h-10.41l-5.24 26.26h-9.83l3.19-16h-2.16l-3.6 18.12h14.14l5.23-26.26h10.35l2.28-11.42zm40.36 0l-.42 2.12H294l-1.4 6.92h-17.12l-.17.86-.54 2.74h2.16l.29-1.48h17.11l2.26-11.16zm19.36 0l-.42 2.12h8.5c.69 0 1.35.02 1.99.07a5.13 5.13 0 001.32-2 27.96 27.96 0 00-3.32-.19zm-108.86 1.21l-.18.9h.73zm128.83 2.42a12.49 12.49 0 01-1.25 1.71c2.07 1.8 3.08 4.18 3.08 7.4 0 2.96-.78 5.48-2.34 7.67a13.68 13.68 0 01-6.58 4.86l-1.16.44 5.65 9.85h-10l-5.03-8.94h-4.43l-1.78 8.94h-9.83l3.2-16h-2.16l-3.62 18.12h14.15l1.77-8.94h1.46l5.03 8.94h14.9l-6.32-11.01c2.66-1.2 4.9-2.83 6.47-5.03a15 15 0 002.73-8.9c0-3.76-1.34-6.9-3.94-9.1zm-18.88 7l-1.83 9.06h6.22c.66 0 1.28-.06 1.86-.18l-1.1-1.97c-.24.02-.49.04-.76.04h-3.63l1.16-5.77-.67-1.19zm-20.33 2.58l-.42 2.12h.44l-1.3 6.52h-15.1l-1.32 6.79h17.82l-1.4 6.92h-27.4l3.19-16h-2.16L258 102.75h31.72l2.26-11.16h-17.84l.5-2.56h15.08l2.15-10.75zm-164.7 6.35l.6 5.33 2.78-5.33zm23.62 0l.56 5.71 2.98-5.7zm64.12 0l.55.9.18-.9z" fill-opacity=".13"/>
  <path d="M23.51 12c-3.11 0-6.03.46-8.72 1.38a11.68 11.68 0 00-1.76 3.02 23.43 23.43 0 0110.48-2.28c3.3 0 6.16.6 8.64 1.77h.01c2.16 1 3.7 2.4 4.85 4.1l-6.95 5.44a8.8 8.8 0 00-7.31-3.73 10.07 10.07 0 00-8.94 5.09c.18.22.38.43.58.63l.01.01h.01c.32.3.67.57 1.03.8a8.06 8.06 0 012.9-3.2 8.05 8.05 0 014.41-1.21c2.32 0 4.02.75 5.35 2.4l.3-.31 2.02 1.92 9.45-7.39-.45-.8a13.71 13.71 0 00-6.37-5.66c-.79-.38-1.61-.7-2.46-.96l-.53.41c-.2-.26-.4-.5-.6-.73-1.85-.47-3.84-.7-5.95-.7zm243.63 0c-3.1 0-6.02.46-8.71 1.37a11.26 11.26 0 00-1.69 2.97 23.7 23.7 0 0110.4-2.22c2.46 0 4.67.32 6.66.95a7.39 7.39 0 00-1.27-2.52 25.32 25.32 0 00-5.39-.55zm43.12 0c-3.12 0-6.03.46-8.72 1.38a11 11 0 00-1.37 2.14h-.01c-.14.3-.27.58-.39.88a23.43 23.43 0 0110.49-2.28c3.29 0 6.15.6 8.64 1.77 2.16 1 3.7 2.4 4.85 4.1l-6.95 5.44a8.8 8.8 0 00-7.3-3.73c-2.04 0-3.92.51-5.55 1.54-1.4.87-2.53 2.08-3.4 3.55.19.22.38.43.59.63v.01h.02c.32.3.66.57 1.02.8a8.06 8.06 0 012.9-3.2 8.05 8.05 0 014.41-1.21c2.32 0 4.02.75 5.36 2.4l.3-.31 2.01 1.92 7.94-6.2-.53 2.6h10.19l.42-2.12h-8.02l1.45-7.18h8l.42-2.12h-10.15l-1.22 6.03a13.93 13.93 0 00-5.87-4.86c-.79-.38-1.6-.7-2.46-.96l-.53.41c-.19-.26-.39-.5-.6-.73-1.85-.47-3.83-.7-5.94-.7zm-217.1.81l-.42 2.12h7.68c1.33 0 2.56.09 3.69.26l.01-.47c0-.6-.09-1.18-.27-1.7-1.08-.14-2.22-.2-3.43-.2zm-35.1 0l-1.21 2.12h3.39l-.4-2.12zm72.9 0l-.42 2.12h7.53c1.39 0 2.67.1 3.84.27l.02-.48c0-.6-.1-1.17-.27-1.7a28.46 28.46 0 00-3.59-.2zm37.03 0l-.41 2.12h19.51l-1.4 6.92h-4.46l-.16.8H168.4v.06l-1.07 5.43h15.03l-.26 1.3h.36l-1.4 6.93h-15.43l-1 5.08h17.83l-1.4 6.92h-27.4l2.4-12h-2.17l-2.82 14.12h31.72l2.26-11.16h-17.84l.5-2.56h15.08l2.16-10.75H169.9l.4-2.05h17.12l2.25-11.16zm72.79 0l-.43 2.12h2.4l-6.68 33.44h-8.4l-11.31-18.35-3.66 18.35h-9.53l2.4-12h-2.16L200.6 50.5h13.84l2.95-14.78 9.1 14.78h11.32l7.54-37.68h-1.3zm106.08 0l-.42 2.12h12.83l-1.45 7.18H347.4l-5.23 26.26h-9.83l2.39-12h-2.16l-2.81 14.12h14.14l5.24-26.27h10.4l2.32-11.4zm25.32 0l-.4 2.12h19.5l-1.4 6.92h-4.46l-.16.8H372.6v.06l-1.06 5.43h15.02l-.26 1.3h.36l-1.4 6.93h-15.43l-.99 5.08h17.82l-1.4 6.92h-27.4l2.4-12h-2.17l-2.82 14.12H387l2.26-11.16h-17.84l.5-2.56H387l2.15-10.75H374.1l.4-2.05h17.12l2.26-11.16zm65.06 0l-.42 2.12h2.37l-6.6 33.44h-8.76l2.33-12h-2.33l.64-3.29-9.3 12.1h-4.07l-6.55-15.3-3.7 18.5h-8.76l2.4-12h-2.17l-2.82 14.1h13.08l2.7-13.5 4.43 10.3h6.5l7.59-9.86-2.54 13.07h13.08l7.42-37.68h-1.28zm-323.68 4.87a12.5 12.5 0 01-.93 2.23 9.84 9.84 0 011.52 5.64 12.8 12.8 0 01-4.77 10.23l.34.6h-1.15c-.98.66-2.1 1.23-3.34 1.7l-1.16.44 5.65 9.85h-10l-5.03-8.94h-4.43l-1.78 8.94h-9.83l2.4-12H78.9l-2.51 12.6-2.99-12.6h-2.18l2.85 12h-9.72l-1.17-6.2H48.12l-3.56 6.2h-10.1l7.64-12h-2.51l-3.68 5.78-7.17-6.85-.75.34-.48.2c-2.1 2.5-4.38 3.64-7.05 3.64a6.44 6.44 0 01-4.6-1.59 5.42 5.42 0 01-.85-1.06c-.88-.15-1.73-.36-2.55-.62a7.4 7.4 0 001.93 3.2l.01.02h.01a8.67 8.67 0 006.05 2.17c3 0 5.68-1.33 7.95-3.7l5.53 5.3a16.5 16.5 0 01-5.95 4.44 22.51 22.51 0 01-8.7 1.55 21.1 21.1 0 01-9.14-1.88 14.4 14.4 0 01-5.96-5.25 14.29 14.29 0 01-2.07-7.72c0-2.35.32-4.53.95-6.54a14.3 14.3 0 01-.85-3.58A22.82 22.82 0 000 34.34c0 3.29.8 6.26 2.4 8.84a16.62 16.62 0 006.83 6.03h.01c2.94 1.4 6.3 2.1 10.06 2.1 3.56 0 6.73-.57 9.5-1.71a17.2 17.2 0 003.7-2.11l-1.9 3h15.19l3.55-6.2h12.07l1.17 6.2h27.64L92 41.55h1.46l5.02 8.94h14.9l-6.32-11.01a15.6 15.6 0 006.47-5.03 15 15 0 002.74-8.9c0-3.1-.92-5.79-2.7-7.87zm37.83.05c-.24.79-.55 1.54-.93 2.26 1 1.54 1.5 3.4 1.5 5.67 0 2.8-.7 5.2-2.07 7.29a13.22 13.22 0 01-5.85 4.9 21.23 21.23 0 01-9.01 1.78H128l-1.73 8.74h-9.82l2.4-12h-2.16l-2.83 14.12h14.15l1.73-8.74h5.28c3.7 0 7.02-.65 9.89-1.98a15.43 15.43 0 006.74-5.67c1.6-2.44 2.4-5.3 2.4-8.44 0-3.13-.9-5.82-2.67-7.93zm132.5 2.49a20.2 20.2 0 01-.73 3.27c.64 1.66.96 3.47.96 5.47 0 3.97-.92 7.45-2.75 10.53a18.5 18.5 0 01-7.56 7.12 23.15 23.15 0 01-11.04 2.58c-3.5 0-6.5-.64-9.08-1.88a14.12 14.12 0 01-5.86-5.24 14.59 14.59 0 01-2.03-7.73c0-2.34.32-4.5.94-6.5-.42-1.13-.7-2.33-.84-3.61a22.82 22.82 0 00-2.22 10.11c0 3.28.78 6.25 2.34 8.83v.01c1.6 2.57 3.87 4.6 6.73 6.03h.02a21.51 21.51 0 007.46 1.98h1.75l-.02.1.82.01c4.44 0 8.47-.93 12.02-2.81a20.75 20.75 0 008.4-7.92 22.37 22.37 0 003.04-11.61c0-3.25-.78-6.19-2.34-8.74zm140.96.36l-9.69 12.6h-.76l.69 1.67 10.85-13.78zM266.13 21.7a9.7 9.7 0 00-5.58 1.66h-.01c-1.29.91-2.32 2.1-3.1 3.5a7 7 0 00.46.54l.01.01c.35.35.74.66 1.15.92a8.32 8.32 0 012.69-3.23 7.43 7.43 0 014.38-1.28c1.96 0 3.32.53 4.32 1.56h.01c.28.28.51.58.72.9.48-.55.91-1.16 1.28-1.82-.15-.2-.32-.38-.5-.56-1.44-1.48-3.46-2.2-5.83-2.2zm-206.73.8l-.67 1.16h.89zm229.56 1.73a22.83 22.83 0 00-2.22 10.11c0 3.29.8 6.26 2.4 8.84a16.62 16.62 0 006.83 6.03h.01a21.9 21.9 0 007.51 1.98h5.23a22.8 22.8 0 006.81-1.6 18.94 18.94 0 007.48-5.74l.62-.76-8.14-7.8a17.24 17.24 0 01-1.24.53c-2.1 2.52-4.38 3.66-7.04 3.66-2 0-3.46-.54-4.6-1.59a5.42 5.42 0 01-.85-1.06c-.89-.15-1.74-.36-2.55-.62a7.4 7.4 0 001.93 3.2v.02h.02a8.67 8.67 0 006.05 2.17c2.99 0 5.67-1.33 7.94-3.7l5.53 5.3a16.5 16.5 0 01-5.95 4.44 22.51 22.51 0 01-8.7 1.55c-3.48 0-6.52-.64-9.13-1.88a14.4 14.4 0 01-5.97-5.25 14.29 14.29 0 01-2.07-7.72c0-2.35.32-4.52.95-6.54-.43-1.12-.71-2.3-.85-3.57zM104.12 26.5l-.05.02.05.08v-.1zm37.8.16c-.68.22-1.39.4-2.13.54a3.2 3.2 0 01-1 2.24c-.69.6-1.67.95-3.15.95H132l.56-2.75h-2.16l-.98 4.86h6.22c1.83 0 3.4-.46 4.56-1.48l.02-.02a5.69 5.69 0 001.7-4.28v-.06zm-49.29.77l-1.02 5.07h5.94l-1.2-2.11H94.2l.57-2.83-.08-.13zm-37.65 2.75l-3.15 5.48h10.06l-.23-1.26-.8-4.22H58.7l.64 3.36h-3.85l1.93-3.36zm218.2 4.75c-.95.47-1.95.86-2.99 1.19a8.03 8.03 0 01-2.07 2.08h-.01a7.2 7.2 0 01-4.32 1.28c-1.96 0-3.34-.53-4.38-1.57a5.08 5.08 0 01-.8-1.06 19.8 19.8 0 01-2.49-.6 7.31 7.31 0 001.78 3.15l.01.01c1.47 1.47 3.51 2.19 5.88 2.19a9.4 9.4 0 005.54-1.67 10.48 10.48 0 003.86-5zM110.52 61.07l4.52 37.68h14.43l8.44-16.21 1.76 16.2h14.44l19.13-36.77.18-.9h-8.34l-1.1 2.12h6.24l-17.4 33.44h-11.25l-2.3-21.28-11.08 21.28h-11.27L112.9 63.2h1.44l-.26-2.12zm13.2 0l1.45 12.9.64-1.23-1.32-11.67zm23.72 0l1.31 13.28.8-1.52-1.17-11.76zm35.8 0l-.42 2.12h2.4l-6.69 33.44h-9.83l2.4-12h-2.16l-2.82 14.12h14.15l7.54-37.68zm40.83 0l-.42 2.12h2.4l-6.7 33.44h-8.39l-11.31-18.35-3.66 18.35h-9.52l2.4-12h-2.17l-2.82 14.12h13.85l2.94-14.77 9.11 14.77h11.31l7.54-37.68h-1.3zm5.53 0l-2.3 11.42h10.18l.42-2.12h-8.01l1.45-7.18h8l.42-2.12zm19.99 0l-.43 2.12h12.83l-1.45 7.18h-10.41l-5.24 26.26h-9.83l2.4-12h-2.17l-2.8 14.12h14.14l5.23-26.26h10.41l2.31-11.42zm25.32 0l-.41 2.12H294l-1.4 6.92h-4.46l-.16.8h-12.66l-.01.06-1.06 5.43h15.03l-.26 1.3h.36l-1.4 6.93h-15.43l-1 5.08h17.83l-1.4 6.92h-27.4l2.39-12h-2.16L258 98.75h31.72l2.26-11.16h-17.84l.5-2.56h15.08l2.15-10.75h-15.04l.4-2.05h17.11l2.26-11.16zm34.4 0l-.42 2.12h7.7c1.32 0 2.55.09 3.68.26l.01-.47c0-.6-.09-1.18-.27-1.7-1.08-.14-2.23-.2-3.43-.2zm20.41 4.87a12.5 12.5 0 01-.93 2.23 9.84 9.84 0 011.52 5.64 12.8 12.8 0 01-4.77 10.23l.34.6h-1.15a16.6 16.6 0 01-3.34 1.7l-1.16.44 5.65 9.85h-10l-5.03-8.94h-4.43l-1.78 8.94h-9.83l2.4-12h-2.16l-2.82 14.12h14.15l1.77-8.94h1.46l5.03 8.94h14.9l-6.32-11.01c2.66-1.2 4.9-2.83 6.47-5.03a15 15 0 002.73-8.9c0-3.1-.91-5.78-2.7-7.87zm-9.45 8.82l-.04.02.05.09v-.1zm-11.48.93l-1.02 5.07h5.94l-1.2-2.11h-2.15l.57-2.83-.08-.13zm-183.77 8.94l.15 1.33.7-1.33zm23.57 0l.16 1.71.9-1.7z" fill-opacity=".22"/>
  <path d="M67.52 8.81l6.54 27.56h-1.9l1.9 8h-9.72l-1.17-6.2H48.12l-3.56 6.2h-10.1l5.09-8h-2.51l-1.13 1.78-4.65-4.44c-.58.45-1.18.86-1.8 1.2l4.48 4.29a16.5 16.5 0 01-5.95 4.44 22.51 22.51 0 01-8.7 1.55 21.1 21.1 0 01-9.14-1.88 14.4 14.4 0 01-5.96-5.25 14.29 14.29 0 01-2.07-7.72 23 23 0 01.4-4.35c-.27-1.14-.4-2.36-.4-3.65 0-.7.03-1.4.09-2.09A22.83 22.83 0 000 30.35c0 3.28.8 6.25 2.4 8.83a16.62 16.62 0 006.83 6.03h.01c2.94 1.4 6.3 2.1 10.06 2.1 3.56 0 6.73-.57 9.5-1.71a17.2 17.2 0 003.7-2.11l-1.9 3h15.19l3.55-6.2h12.07l1.17 6.2h27.64L92 37.55h1.46l5.02 8.94h14.9l-5.8-10.12h-2.44l4.58 8h-10l-5.03-8.94h-4.43l-1.78 8.94h-9.83l1.6-8h-1.6l5.52-27.56h-.56l-7.23 36.15L67.8 8.81zm53.89 0l-7.54 37.68h14.15l1.73-8.74h5.28c3.7 0 7.02-.65 9.89-1.98a15.43 15.43 0 006.74-5.67c1.6-2.44 2.4-5.3 2.4-8.45 0-2.78-.71-5.23-2.13-7.22-.06 1.2-.25 2.34-.57 3.4.4 1.12.6 2.39.6 3.82 0 2.8-.7 5.2-2.07 7.3a13.22 13.22 0 01-5.85 4.9 21.23 21.23 0 01-9.01 1.78H128l-1.73 8.74h-9.82l1.6-8h-1.6l5.5-27.56zm37.2 0l-7.53 37.68h31.72l2.26-11.16h-3.78l-.21 1.04h-16.21l-.21 1.08h17.82l-1.4 6.92h-27.4l1.6-8h-1.6l5.5-27.56zm27.3 0l-.22 1.05h-17.12l-.17.85-.04.22h18.73l-1.4 6.92h-3.66l-.43 2.12h5.83l2.25-11.16zm22.22 0l-7.54 37.68h13.84l2.95-14.78 9.1 14.78h11.32l7.54-37.68h-3.76l-.43 2.12h1.6l-6.68 33.44h-8.4l-11.31-18.35-3.66 18.35h-9.53l1.6-8h-1.6l5.51-27.56zm23.36 0l-2.35 11.78.43.69 2.49-12.47zm95.39 0l-1.22 6.03a13.64 13.64 0 00-5-4.43l-1.84 1.45.07.03h.01c2.16 1 3.7 2.4 4.85 4.1l-6.95 5.44a8.8 8.8 0 00-7.3-3.73c-2.04 0-3.92.51-5.55 1.54a10.34 10.34 0 00-3.79 4.28c-.25.5-.46 1.03-.64 1.56.38.87.91 1.66 1.6 2.33.18-1.07.49-2.05.94-2.94v-.01a8.13 8.13 0 013.02-3.43 8.05 8.05 0 014.41-1.21c2.84 0 4.76 1.12 6.2 3.63l.6 1.06 8.8-6.88-.52 2.6H335l-5.23 26.26h14.15l5.23-26.27h10.4l2.32-11.4h-3.78l-.26 1.29H347.4l-.16.82h12.03l-1.45 7.18H347.4l-5.23 26.26h-9.83l1.6-8h-1.6l3.63-18.26h-8.81l1.45-7.18h8.8l.16-.82h-10.41l.26-1.3zm35.93 0l-7.54 37.68H387l2.26-11.16h-3.78l-.2 1.04h-16.22l-.2 1.08h17.81l-1.4 6.92h-27.4l1.6-8h-1.6l5.5-27.56zm27.29 0l-.21 1.05h-17.13l-.17.85-.04.22h18.74l-1.4 6.92h-3.67l-.42 2.12h5.82l2.26-11.16zm6.94 0L389.5 46.5h13.08l2.7-13.51 4.43 10.3h6.5l7.59-9.86-2.54 13.07h13.08l7.42-37.68h-3.73l-.42 2.12h1.58l-6.6 33.44h-8.76l1.55-8h-1.55l1.47-7.59-.45-.2-9.69 12.6h-4.06l-6.55-15.3-3.7 18.5h-8.76l1.6-8h-1.6l5.5-27.57zm-130.91.9c-1.57 0-3.04.3-4.35.94a26.48 26.48 0 017.47-.45c-.94-.33-2-.5-3.12-.5zm-243.38 0c-1.55 0-3.01.3-4.34.89a26.12 26.12 0 017.43-.38 9.14 9.14 0 00-3.09-.52zm286.74 0c-1.55 0-3 .3-4.34.89a26.27 26.27 0 017.43-.38 9.14 9.14 0 00-3.09-.52zm-215.77.35l-.18.87h6.88c.67 0 1.3.02 1.92.07a6.55 6.55 0 00-3.74-.94zm37.8 0l-.18.87h6.73c.73 0 1.42.03 2.09.08a6.53 6.53 0 00-3.76-.95zm-97.6.35l-1.85 1.45c.03 0 .06.02.08.03h.01c2.16 1 3.7 2.4 4.85 4.1l-6.95 5.44a8.8 8.8 0 00-7.31-3.73c-2.04 0-3.91.51-5.54 1.54a10.34 10.34 0 00-3.79 4.28c-.25.5-.46 1.03-.64 1.56.38.87.91 1.66 1.6 2.33.18-1.07.49-2.05.93-2.94v-.01a8.13 8.13 0 013.03-3.43 8.05 8.05 0 014.41-1.21c2.84 0 4.75 1.12 6.2 3.63l.6 1.06 10.32-8.07-.45-.8a13.46 13.46 0 00-5.5-5.23zm25.48.1l-.25.42h.33zm54.72 3.88a13.8 13.8 0 01-.57 3.35c.4 1.12.6 2.38.6 3.81 0 2.96-.78 5.48-2.34 7.67a12.8 12.8 0 01-4.08 3.68l1 1.73a14.51 14.51 0 004.8-4.18 15 15 0 002.74-8.9c0-2.76-.73-5.19-2.15-7.16zm170 2.2v.37c0 1.52-.13 2.96-.4 4.34a20.17 20.17 0 01-2.35 14.19 18.5 18.5 0 01-7.56 7.12 23.15 23.15 0 01-11.04 2.57c-3.49 0-6.5-.63-9.08-1.87a14.12 14.12 0 01-5.86-5.24 14.59 14.59 0 01-2.03-7.73c0-1.51.13-2.95.4-4.33a16 16 0 01-.4-3.67c0-.71.03-1.4.09-2.09a22.83 22.83 0 00-2.2 10.1c0 3.27.77 6.24 2.33 8.82v.01c1.6 2.57 3.87 4.6 6.73 6.03h.02c2.9 1.4 6.25 2.1 10 2.1 4.45 0 8.48-.94 12.03-2.82a20.75 20.75 0 008.4-7.92 22.38 22.38 0 003.04-11.61c0-3.1-.7-5.9-2.12-8.38zm-18 1.11a9.7 9.7 0 00-5.57 1.66h-.01a10.62 10.62 0 00-3.56 4.4c-.2.47-.39.94-.54 1.42a7.1 7.1 0 001.46 2.22l.01.01.14.13c.17-1.02.45-2 .86-2.91a8.4 8.4 0 012.84-3.53 7.43 7.43 0 014.38-1.28c1.96 0 3.32.53 4.32 1.56h.01a5.47 5.47 0 011.55 3.82 11.2 11.2 0 001.46-3.05 7.11 7.11 0 00-1.51-2.25c-1.44-1.48-3.46-2.2-5.83-2.2zm-172.4.36l-.5 2.45h2.16l.07-.34h3.15c.49 0 .92.04 1.29.1.96-.22 1.8-.63 2.5-1.24a6.5 6.5 0 00-3.8-.97zm37.8 0l-.5 2.45h2.16l.07-.34h3.15c.5 0 .92.04 1.29.1a5.72 5.72 0 002.5-1.24 6.5 6.5 0 00-3.8-.97zm-72.12.44l-2.97 5.16h3.95zm229.55 1.76a22.84 22.84 0 00-2.2 10.08c0 3.29.79 6.26 2.39 8.84a16.62 16.62 0 006.83 6.03h.01c2.94 1.4 6.3 2.1 10.06 2.1 3.56 0 6.73-.57 9.5-1.71a18.94 18.94 0 007.47-5.75l.62-.76-5.62-5.38c-.58.45-1.18.86-1.8 1.2l4.47 4.29a16.5 16.5 0 01-5.95 4.44 22.51 22.51 0 01-8.7 1.55c-3.48 0-6.52-.64-9.13-1.88a14.4 14.4 0 01-5.97-5.25 14.29 14.29 0 01-2.07-7.72c0-1.52.13-2.97.4-4.34-.27-1.15-.4-2.36-.4-3.66 0-.7.03-1.4.09-2.08zM181.2 22.02l-.13.64h-13.44l-.29 1.48h15.03l-1.06 5.3h1.16l-.67 3.33h1l2.16-10.75zm204.19 0l-.13.64h-13.44l-.28 1.48h15.02l-1.06 5.3h1.16l-.67 3.33h1l2.16-10.75zm-245.35 5.13a24.6 24.6 0 01-5.01.49h-5.44l-.17.86h6.22a6.8 6.8 0 004.4-1.35zm-48.21.28l-.22 1.07h3.69l-.6-1.07zm-39.15 2.75l-.85 1.48h10.06l-.23-1.26-.05-.22zm215.42 6.48a26.05 26.05 0 01-7.45.44c.95.33 2 .5 3.14.5a9.8 9.8 0 004.3-.94zm43.3 0a25.84 25.84 0 01-7.38.45 10.07 10.07 0 007.38-.45zm-286.75 0a25.84 25.84 0 01-7.37.45 10.07 10.07 0 007.37-.45zm85.86 20.41l4.52 37.68h14.43l8.44-16.21 1.76 16.2h14.44l19.52-37.52-.14.7-7.37 36.83h14.15l7.54-37.68h-3.77l-.42 2.12h1.6l-6.69 33.44h-9.83l1.6-8h-1.6l5.52-27.56h-7.06l-1.1 2.12h4.16l-17.4 33.44h-11.25l-2.3-21.28-11.08 21.28h-11.27L112.9 59.2h.96l-.26-2.12zm12.75 0l1.9 16.9 1.01-1.94-1.69-14.96zm23.78 0l1.7 17.28 1.13-2.16-1.5-15.12zm44.37 0l-7.54 37.68h13.85l2.94-14.77 9.11 14.77h11.31l7.54-37.68h-3.76l-.42 2.12h1.6l-6.7 33.44h-8.39l-11.31-18.35-3.66 18.35h-9.52l1.6-8h-1.6l5.5-27.56zm23.37 0l-2.35 11.78.42.69 2.49-12.47zm14.81 0l-2.3 11.42h10.42l-5.24 26.26h14.15l5.23-26.26h10.41l2.31-11.42h-3.78l-.26 1.3h-10.42l-.16.82h12.03l-1.45 7.18h-10.41l-5.24 26.26h-9.83l1.6-8h-1.6l3.64-18.26h-8.81l1.45-7.18h8.8l.16-.82h-10.42l.27-1.3zm35.93 0L258 94.75h31.72l2.26-11.16h-3.78l-.21 1.04h-16.21l-.21 1.08h17.82l-1.4 6.92h-27.4l1.59-8h-1.6l5.51-27.56zm27.3 0l-.22 1.05h-17.12l-.17.85-.04.22H294l-1.4 6.92h-3.66l-.43 2.12h5.82l2.26-11.16zm6.93 0l-7.53 37.68h14.15l1.77-8.94h1.46l5.03 8.94h14.9l-5.8-10.12h-2.45l4.6 8h-10l-5.04-8.94h-4.43l-1.78 8.94h-9.83l1.6-8h-1.6l5.51-27.56zm10.11 1.25l-.17.87h6.88c.67 0 1.3.02 1.92.07a6.55 6.55 0 00-3.75-.94zm20.41 4.33c-.06 1.19-.25 2.3-.58 3.35.4 1.12.6 2.38.6 3.81 0 2.96-.77 5.48-2.33 7.67a12.8 12.8 0 01-4.08 3.68l1 1.73a14.5 14.5 0 004.8-4.18 15 15 0 002.73-8.9c0-2.76-.72-5.19-2.14-7.16zm-20.4 3.67l-.5 2.45h2.16l.07-.34h3.14c.5 0 .92.04 1.3.11a5.72 5.72 0 002.5-1.25 6.5 6.5 0 00-3.8-.97zm-21.77 3.96l-.12.64h-13.44l-.29 1.48h15.03l-1.06 5.3h1.16l-.67 3.33h1l2.15-10.75zm19.88 5.41l-.22 1.07h3.69l-.6-1.07z" fill-opacity=".36"/>
  <path d="M66.58 4.81l7.48 31.56h-.95l.95 4h-9.72l-1.17-6.2H48.12l-3.56 6.2h-10.1l2.54-4h-2.55l1.43-2.24-2.47-2.37c-.5.53-1.01 1.02-1.54 1.46l2.07 1.98a16.5 16.5 0 01-5.95 4.44 22.51 22.51 0 01-8.7 1.55 21.1 21.1 0 01-9.14-1.88 14.4 14.4 0 01-5.96-5.25 14.29 14.29 0 01-2.07-7.72c0-.74.03-1.47.1-2.18a20.53 20.53 0 012.01-11.22c-.44.59-.85 1.2-1.23 1.84-2 3.39-3 7.27-3 11.56 0 3.29.8 6.26 2.4 8.84v.01a16.62 16.62 0 006.83 6.02h.01c2.94 1.4 6.3 2.1 10.06 2.1 3.56 0 6.73-.57 9.5-1.71a17.2 17.2 0 003.7-2.1l-1.9 2.99h15.19l3.55-6.2h12.07l1.17 6.2h27.64L92 33.55h1.46l5.02 8.94h14.9l-6.32-11.01a15.6 15.6 0 006.47-5.03 15 15 0 002.74-8.9c0-3.14-.94-5.85-2.77-7.95.43 1.16.65 2.46.65 3.96 0 .71-.05 1.4-.14 2.06.1.61.14 1.25.14 1.93 0 2.96-.78 5.48-2.34 7.67a13.4 13.4 0 01-5.86 4.57l3.77 6.58h-2.29l2.3 4h-10l-5.04-8.94h-4.43l-1.78 8.94h-9.83l.8-4h-.8l6.31-31.56h-1.35l-7.23 36.15L67.8 4.81zm54.83 0l-7.54 37.68h14.15l1.73-8.74h5.28c3.7 0 7.02-.65 9.89-1.97a15.43 15.43 0 006.74-5.67c1.6-2.45 2.4-5.3 2.4-8.45 0-3.2-.94-5.94-2.78-8.06.45 1.18.67 2.52.67 4.06 0 .71-.04 1.4-.13 2.06.09.61.13 1.25.13 1.94 0 2.8-.69 5.2-2.06 7.29a13.22 13.22 0 01-5.85 4.9 21.23 21.23 0 01-9.01 1.78H128l-1.73 8.74h-9.82l.8-4h-.8l6.3-31.56zm37.2 0l-7.53 37.68h31.72l2.26-11.16h-2.97l-.43 2.12h.81l-1.4 6.92h-27.4l.8-4h-.8l6.3-31.56zm28.1 0l-.43 2.12h.81l-1.4 6.93h-17.12l-.17.85-.28 1.43h2.16l.03-.17h17.12l2.25-11.16zm21.42 0l-7.54 37.68h13.84l2.95-14.78 9.1 14.78h11.32l7.54-37.68h-2.96l-.43 2.12h.8l-6.68 33.44h-8.4l-11.31-18.35-3.66 18.35h-9.53l.8-4h-.8l6.31-31.56zm11.29 0l10.15 16.47 3.28-16.47h-1.36l-2.94 14.77-9.11-14.77zm107.46 0l-1.22 6.03c-.64-.95-1.4-1.8-2.27-2.56l-1.74 1.36c.82.7 1.51 1.48 2.1 2.35l-6.95 5.44a8.8 8.8 0 00-7.3-3.73c-2.04 0-3.92.51-5.55 1.54a10.34 10.34 0 00-3.79 4.28 12.51 12.51 0 00-1.17 3.82 7.54 7.54 0 002.14 4.08l.01.01h.01l.02.03a7.25 7.25 0 01-.22-1.88c0-1.96.37-3.65 1.1-5.11l.01-.01a8.13 8.13 0 013.02-3.43 8.05 8.05 0 014.41-1.21c2.84 0 4.76 1.12 6.2 3.63l.6 1.06 8.8-6.88-.52 2.6H335l-5.23 26.26h14.15l5.23-26.27h10.4l2.32-11.4h-2.97l-.43 2.11h.8l-1.44 7.18H347.4l-5.23 26.26h-9.83l.8-4h-.8l4.43-22.26h-9.61l.8-4h-.8l1.07-5.3zm35.93 0l-7.54 37.68H387l2.26-11.16h-2.97l-.43 2.12h.81l-1.4 6.92h-27.4l.8-4h-.8l6.3-31.56zm28.1 0l-.43 2.12h.8l-1.4 6.93h-17.12l-.17.85-.27 1.43h2.15l.03-.17h17.12l2.26-11.16zm6.13 0L389.5 42.5h13.08l2.7-13.51 4.43 10.3h6.5l7.59-9.86-2.54 13.07h13.08l7.42-37.68h-2.94l-.42 2.12h.79l-6.6 33.44h-8.76l.77-4h-.77l2.19-11.27-1.17-.52-9.69 12.6h-4.06l-6.55-15.3-3.7 18.5h-8.76l.8-4h-.8l6.3-31.57zm10.68 0l7.37 18.04.43-.55-7.15-17.49zM36.65 8.27L34.9 9.64c.82.7 1.5 1.48 2.1 2.35l-6.95 5.44a8.8 8.8 0 00-7.31-3.73c-2.04 0-3.91.51-5.54 1.54a10.34 10.34 0 00-3.79 4.28 12.51 12.51 0 00-1.17 3.82 7.54 7.54 0 002.14 4.08l.01.01h.01l.02.03a7.25 7.25 0 01-.22-1.88c0-1.96.37-3.65 1.1-5.11v-.01a8.13 8.13 0 013.03-3.43 8.05 8.05 0 014.41-1.21c2.84 0 4.75 1.12 6.2 3.63l.6 1.06 10.32-8.07-.45-.8a12.84 12.84 0 00-2.77-3.37zm246.14 2.34a14.72 14.72 0 011.33 6.35c0 .75-.03 1.48-.1 2.19a20.17 20.17 0 01-2.65 12.34 18.5 18.5 0 01-7.56 7.12 23.15 23.15 0 01-11.04 2.58c-3.5 0-6.5-.64-9.08-1.88a14.12 14.12 0 01-5.86-5.24 14.57 14.57 0 01-2.03-7.73c0-.74.03-1.46.1-2.17a20.51 20.51 0 012.04-11.27c-.46.6-.88 1.23-1.26 1.88-2 3.39-3 7.27-3 11.56 0 3.28.78 6.25 2.34 8.83v.01c1.6 2.57 3.87 4.6 6.73 6.03h.02c2.9 1.4 6.25 2.1 10 2.1 4.45 0 8.48-.94 12.03-2.82a20.75 20.75 0 008.4-7.92 22.37 22.37 0 003.04-11.61 16.5 16.5 0 00-3.45-10.35zm8.17 2.34c-.43.58-.84 1.2-1.22 1.83-2 3.39-3 7.27-3 11.56 0 3.29.8 6.26 2.4 8.84v.01a16.62 16.62 0 006.83 6.02h.01c2.94 1.4 6.3 2.1 10.06 2.1 3.56 0 6.73-.57 9.5-1.71a18.94 18.94 0 007.47-5.75l.62-.76-3.48-3.33c-.5.53-1.01 1.02-1.54 1.46l2.07 1.98a16.5 16.5 0 01-5.95 4.44 22.51 22.51 0 01-8.7 1.55c-3.49 0-6.52-.64-9.13-1.88a14.4 14.4 0 01-5.97-5.25 14.29 14.29 0 01-2.07-7.72c0-.74.03-1.46.1-2.17a20.53 20.53 0 012-11.22zm-24.83.75a9.7 9.7 0 00-5.58 1.66h-.01a10.62 10.62 0 00-3.56 4.4 13.66 13.66 0 00-1.05 3.67c.28 1.55.93 2.9 1.97 3.97l.01.01.21.2a7.7 7.7 0 01-.23-1.98c0-1.83.34-3.48 1.02-5a8.4 8.4 0 012.84-3.52 7.43 7.43 0 014.38-1.3c1.96 0 3.32.54 4.32 1.57h.01c1.04 1.05 1.57 2.4 1.57 4.29 0 1.68-.3 3.22-.87 4.63.71-.8 1.31-1.73 1.78-2.76.51-1.15.86-2.37 1.05-3.65a7.44 7.44 0 00-2.03-4c-1.44-1.47-3.46-2.19-5.83-2.19zm-167.53.36h-4.88l-1.3 6.45h2.16l.87-4.34h3.15c1.34 0 2.2.29 2.69.67.47.39.72.9.72 1.88 0 .23-.02.44-.04.64.15-.1.3-.22.43-.34l.01-.01a5.2 5.2 0 001.38-2.16 3.89 3.89 0 00-1.18-1.66c-1.01-.81-2.38-1.13-4.01-1.13zm37.8 0h-4.88l-1.3 6.45h2.16l.87-4.34h3.15c1.35 0 2.2.29 2.69.67.47.39.72.9.72 1.88 0 .23-.01.44-.04.64.15-.1.3-.22.43-.34l.02-.01c.64-.6 1.1-1.33 1.38-2.17a3.89 3.89 0 00-1.18-1.65c-1.02-.81-2.39-1.13-4.02-1.13zm-77 .44l-5.27 9.16h2.44l1.81-3.15.6 3.15h2.16zM182 18.02l-.43 2.12h.8l-1.3 6.52h-15.1l-.54 2.79h2.16l.13-.68h15.08l2.16-10.75zm204.19 0l-.43 2.12h.8l-1.3 6.52h-15.09l-.55 2.79h2.16l.13-.68H387l2.15-10.75zM110.5 53.07l4.52 37.68h14.43l8.44-16.21 1.76 16.21h14.44l19.52-37.53-.14.7-7.37 36.83h14.15l7.54-37.68h-2.97l-.42 2.12h.8l-6.69 33.44h-9.83l.8-4h-.8L175 53.07h-5.78l-1.1 2.12h2.08l-17.4 33.44h-11.25l-2.3-21.27-11.08 21.27H116.9l-4-33.43h.48l-.26-2.12zm12.3 0l2.35 20.9 10.9-20.9h-.31l-9.26 17.77-2-17.77zm23.83 0l2.1 21.28 11.09-21.28h-.3l-9.38 18-1.78-18zm44.77 0l-7.54 37.68h13.85l2.94-14.77 9.11 14.77h11.31l7.54-37.68h-2.96l-.43 2.12h.8l-6.68 33.44h-8.4l-11.31-18.35-3.66 18.35h-9.52l.8-4h-.8l6.3-31.56zm11.29 0l10.15 16.47 3.29-16.47h-1.36l-2.95 14.78-9.1-14.78zm26.9 0l-2.31 11.42h10.42l-5.24 26.26h14.15l5.23-26.26h10.41l2.31-11.42h-2.97l-.43 2.12h.81l-1.45 7.18h-10.41l-5.24 26.26h-9.83l.8-4h-.8l4.44-22.26h-9.61l.8-4h-.8l1.07-5.3zm35.92 0L258 90.75h31.72l2.26-11.16H289l-.43 2.12h.81l-1.4 6.92h-27.4l.8-4h-.81l6.31-31.56zm28.1 0l-.43 2.12h.81l-1.4 6.93h-17.12l-.17.85-.28 1.43h2.16l.03-.17h17.11l2.26-11.16zm6.13 0l-7.53 37.68h14.15l1.77-8.94h1.46l5.03 8.94h14.9l-6.32-11.01c2.66-1.2 4.9-2.83 6.47-5.03a15 15 0 002.73-8.9c0-3.14-.93-5.85-2.76-7.94.43 1.15.65 2.46.65 3.94 0 .72-.05 1.4-.14 2.07.09.61.14 1.25.14 1.93 0 2.96-.78 5.48-2.34 7.67a13.4 13.4 0 01-5.87 4.57l3.78 6.58h-2.3l2.3 4h-10l-5.03-8.94h-4.43l-1.78 8.94h-9.83l.8-4h-.8l6.31-31.56zm10.11 9.25l-1.3 6.45h2.17l.87-4.33h3.14c1.35 0 2.22.28 2.7.66.47.39.72.9.72 1.88 0 .23-.02.44-.04.64.15-.1.29-.22.43-.34l.01-.01a5.2 5.2 0 001.38-2.16 3.89 3.89 0 00-1.18-1.65c-1.01-.82-2.38-1.14-4.02-1.14zm-20.96 3.96l-.42 2.12h.8l-1.3 6.52h-15.1l-.54 2.79h2.16l.13-.68h15.08l2.15-10.75z" fill-opacity=".6"/>
  <path d="M23.51 0c-4.48 0-8.54.95-12.13 2.86A21.19 21.19 0 003 10.78c-2 3.39-3 7.27-3 11.56 0 3.29.8 6.26 2.4 8.84v.01a16.62 16.62 0 006.83 6.02h.01c2.94 1.4 6.3 2.1 10.06 2.1 3.56 0 6.73-.57 9.5-1.71a17.2 17.2 0 003.7-2.11l-1.9 3h15.19l3.55-6.2h12.07l1.17 6.2h27.64L92 29.55h1.46l5.02 8.94h14.9l-6.32-11.01a15.6 15.6 0 006.47-5.03 15 15 0 002.74-8.9c0-3.93-1.47-7.18-4.31-9.4v-.01c-2.82-2.26-6.71-3.33-11.54-3.33H83.61l-7.23 36.15L67.8.81H54.6L35.9 30.15l-7.6-7.27-.73.87c-2.12 2.57-4.41 3.73-7.1 3.73-2 0-3.46-.54-4.6-1.59a5.63 5.63 0 01-1.66-4.3c0-1.97.37-3.66 1.1-5.12v-.01a8.13 8.13 0 013.03-3.43 8.05 8.05 0 014.41-1.21c2.84 0 4.75 1.12 6.2 3.63l.6 1.06 10.32-8.07-.45-.8a13.72 13.72 0 00-6.37-5.66A22.06 22.06 0 0023.5 0zm243.63 0c-4.45 0-8.49.93-12.07 2.81a21.07 21.07 0 00-8.4 7.97c-2 3.39-2.99 7.27-2.99 11.56 0 3.28.78 6.25 2.34 8.83v.01c1.6 2.58 3.87 4.6 6.73 6.03h.02c2.9 1.4 6.25 2.1 10 2.1 4.45 0 8.48-.94 12.03-2.82a20.75 20.75 0 008.4-7.92 22.38 22.38 0 003.04-11.61c0-3.28-.8-6.26-2.4-8.84a15.62 15.62 0 00-6.73-5.98A22.06 22.06 0 00267.14 0zm43.12 0c-4.49 0-8.55.95-12.13 2.86a21.19 21.19 0 00-8.4 7.92c-2 3.39-2.99 7.27-2.99 11.56 0 3.29.8 6.26 2.4 8.84v.01a16.62 16.62 0 006.83 6.02h.01c2.94 1.4 6.3 2.1 10.06 2.1 3.56 0 6.73-.57 9.5-1.71a18.94 18.94 0 007.47-5.75l.62-.76-8.59-8.21-.72.87c-2.13 2.57-4.42 3.73-7.11 3.73-2 0-3.46-.54-4.6-1.59a5.63 5.63 0 01-1.66-4.3c0-1.97.38-3.66 1.1-5.12l.01-.01a8.13 8.13 0 013.02-3.43 8.05 8.05 0 014.41-1.21c2.84 0 4.76 1.12 6.2 3.63l.6 1.06 8.8-6.88-.52 2.6H335l-5.23 26.26h14.15l5.23-26.27h10.4l2.32-11.4h-34.98l-1.22 6.02a13.94 13.94 0 00-5.87-4.86A22.06 22.06 0 00310.26 0zM121.4.81l-7.54 37.68h14.15l1.73-8.74h5.28c3.7 0 7.02-.65 9.89-1.97a15.43 15.43 0 006.74-5.67c1.6-2.45 2.4-5.3 2.4-8.45 0-3.98-1.45-7.26-4.3-9.52-2.86-2.26-6.8-3.33-11.69-3.33zm37.2 0l-7.53 37.68h31.72l2.26-11.16h-17.84l.5-2.56h15.08l2.16-10.75H169.9l.4-2.05h17.12L189.68.81zm49.52 0l-7.54 37.68h13.84l2.95-14.78 9.1 14.78h11.32L245.34.8h-13.85l-2.94 14.77L219.44.81zm154.68 0l-7.54 37.68H387l2.26-11.16h-17.84l.5-2.56H387l2.15-10.75H374.1l.4-2.05h17.12L393.88.81zm34.23 0L389.5 38.5h13.08l2.7-13.51 4.43 10.3h6.5l7.59-9.86-2.54 13.07h13.08L441.76.8h-12.01l-14.08 17.9-7.3-17.9zM23.5 2.11c3.3 0 6.16.6 8.64 1.78h.01c2.16 1 3.7 2.4 4.85 4.1l-6.95 5.44a8.8 8.8 0 00-7.31-3.73c-2.04 0-3.91.51-5.54 1.54a10.34 10.34 0 00-3.79 4.28 13.42 13.42 0 00-1.33 6.06c0 2.32.78 4.35 2.3 5.84l.01.01h.01a8.67 8.67 0 006.05 2.17c3 0 5.68-1.33 7.95-3.7l5.53 5.3a16.5 16.5 0 01-5.95 4.44 22.51 22.51 0 01-8.7 1.55 21.1 21.1 0 01-9.14-1.88 14.4 14.4 0 01-5.96-5.25 14.29 14.29 0 01-2.07-7.72c0-3.97.9-7.44 2.7-10.48a18.96 18.96 0 017.55-7.12A23.2 23.2 0 0123.5 2.12zm243.63 0c3.5 0 6.49.66 9.03 1.93h.01a13.4 13.4 0 015.86 5.19 14.29 14.29 0 012.08 7.73c0 3.97-.92 7.45-2.75 10.53a18.5 18.5 0 01-7.56 7.12 23.15 23.15 0 01-11.04 2.58c-3.49 0-6.5-.64-9.08-1.88a14.12 14.12 0 01-5.86-5.24 14.56 14.56 0 01-2.03-7.73c0-3.96.9-7.43 2.7-10.48a18.85 18.85 0 017.56-7.17 23.45 23.45 0 0111.08-2.57zm43.12 0c3.29 0 6.15.6 8.63 1.78h.01c2.16 1 3.7 2.4 4.85 4.1l-6.95 5.44a8.8 8.8 0 00-7.3-3.73c-2.04 0-3.92.51-5.55 1.54a10.34 10.34 0 00-3.79 4.28 13.42 13.42 0 00-1.33 6.06c0 2.32.78 4.35 2.3 5.84l.01.01h.01a8.67 8.67 0 006.06 2.17c2.98 0 5.67-1.33 7.94-3.7l5.53 5.3a16.5 16.5 0 01-5.95 4.44 22.51 22.51 0 01-8.7 1.55c-3.49 0-6.52-.64-9.13-1.88a14.4 14.4 0 01-5.97-5.25 14.29 14.29 0 01-2.07-7.72c0-3.97.9-7.44 2.7-10.48a18.96 18.96 0 017.56-7.12 23.2 23.2 0 0111.14-2.62zm-254.5.82h10.37l7.93 33.44h-9.72l-1.17-6.2H48.12l-3.56 6.2h-10.1zm29.58 0h15.08c4.52 0 7.88 1 10.21 2.86l.01.01c2.37 1.85 3.5 4.31 3.5 7.75 0 2.96-.77 5.48-2.33 7.67a13.68 13.68 0 01-6.58 4.86l-1.16.44 5.65 9.85h-10l-5.03-8.94h-4.43l-1.78 8.94h-9.83zm37.8 0h14.93c4.6 0 8 1 10.37 2.87 2.37 1.87 3.51 4.38 3.51 7.86 0 2.8-.69 5.2-2.06 7.29a13.22 13.22 0 01-5.85 4.9 21.23 21.23 0 01-9.01 1.79H128l-1.73 8.73h-9.82zm37.21 0h26.74l-1.4 6.93h-17.12l-.17.85-1.06 5.43h15.03l-1.3 6.52h-15.1l-1.32 6.79h17.82l-1.4 6.92h-27.4zm49.51 0h8.4l11.31 18.35 3.66-18.35h9.52l-6.68 33.44h-8.4l-11.31-18.35-3.66 18.35h-9.53zm118.75 0h30.66l-1.45 7.18H347.4l-5.23 26.26h-9.83l5.23-26.26h-10.41zm35.93 0h26.75l-1.4 6.93h-17.13l-.17.85-1.05 5.43h15.02l-1.3 6.52h-15.09l-1.33 6.79h17.82l-1.4 6.92h-27.4zm34.23 0h8.18l8.14 19.92 15.69-19.92h8.4l-6.58 33.44h-8.77l2.9-14.94-1.88-.85-9.69 12.6h-4.06l-6.55-15.3-3.7 18.5h-8.76zM266.13 9.7a9.7 9.7 0 00-5.58 1.66h-.01a10.62 10.62 0 00-3.56 4.4 14.2 14.2 0 00-1.2 5.87c0 2.3.7 4.3 2.12 5.77l.01.01c1.47 1.47 3.51 2.19 5.88 2.19a9.4 9.4 0 005.54-1.67 10.41 10.41 0 003.6-4.39c.81-1.8 1.21-3.77 1.21-5.87 0-2.3-.72-4.3-2.18-5.77-1.44-1.48-3.46-2.2-5.83-2.2zm-172.41.36l-2.1 10.45h6.21c1.84 0 3.42-.47 4.57-1.49l.01-.01a5.7 5.7 0 001.71-4.29c0-1.42-.5-2.7-1.5-3.52-1.02-.82-2.4-1.14-4.02-1.14zm37.8 0l-2.1 10.45h6.22c1.83 0 3.4-.47 4.56-1.49l.02-.01a5.7 5.7 0 001.7-4.29 4.4 4.4 0 00-1.5-3.52c-1.02-.82-2.39-1.14-4.02-1.14zm-72.12.44l-7.57 13.16h10.06l-.23-1.26zm206.73 1.32c1.96 0 3.32.53 4.32 1.56h.01c1.04 1.05 1.57 2.4 1.57 4.29 0 1.83-.34 3.48-1.03 5a8.25 8.25 0 01-2.88 3.53h-.01a7.2 7.2 0 01-4.32 1.28c-1.96 0-3.34-.53-4.38-1.57-1-1.04-1.52-2.39-1.52-4.28 0-1.83.34-3.48 1.02-5a8.4 8.4 0 012.84-3.52 7.43 7.43 0 014.38-1.3zm-170.68.35h3.15c1.34 0 2.2.29 2.69.67.47.39.72.9.72 1.88 0 1.27-.35 2.09-1.03 2.72-.67.6-1.66.95-3.15.95H94.2zm37.8 0h3.15c1.35 0 2.2.29 2.69.67.47.39.72.9.72 1.88 0 1.27-.35 2.09-1.03 2.73-.68.6-1.66.94-3.14.94H132zm-74.87 4.34l.96 5.03h-3.85zm258.2 32.56h-16.83l-7.53 37.68h14.15l1.77-8.94h1.46l5.03 8.94h14.9l-6.32-11.01c2.66-1.2 4.9-2.83 6.47-5.03a15 15 0 002.73-8.9c0-3.93-1.46-7.19-4.31-9.41-2.82-2.26-6.7-3.33-11.53-3.33zm-206.07 0l4.52 37.68h14.43l8.44-16.21 1.76 16.21h14.44l19.52-37.53-.14.7-7.37 36.83h14.15l7.54-37.68h-28.28l-9.37 18-1.78-18h-12.62l-9.26 17.77-2-17.77zm80.9 0l-7.54 37.68h13.85l2.94-14.77 9.11 14.77h11.31l7.54-37.68h-13.84l-2.95 14.78-9.1-14.78zm38.18 0l-2.3 11.42h10.42l-5.24 26.26h14.15l5.23-26.26h10.41l2.31-11.42zm35.93 0L258 86.75h31.72l2.26-11.16h-17.84l.5-2.56h15.08l2.15-10.75h-15.04l.4-2.05h17.11l2.26-11.16zM112.9 51.2h9.7l2.56 22.77 11.87-22.77h9.43l2.28 23.16 12.07-23.16h9.4l-17.4 33.44h-11.25l-2.3-21.27-11.08 21.27h-11.27zm62.48 0h9.83l-6.69 33.44h-9.83zm17.76 0h8.4l11.31 18.35 3.66-18.35h9.53l-6.7 33.44h-8.39l-11.31-18.35-3.66 18.35h-9.52zm38.19 0h30.65l-1.45 7.18h-10.41l-5.24 26.26h-9.83l5.24-26.26h-10.41zm35.93 0H294l-1.4 6.93h-17.12l-.17.85-1.06 5.43h15.03l-1.3 6.52h-15.1l-1.32 6.79h17.82l-1.4 6.92h-27.4zm34.23 0h15.08c4.52 0 7.88 1 10.21 2.86v.01h.01c2.37 1.85 3.5 4.31 3.5 7.75 0 2.96-.77 5.48-2.33 7.67a13.68 13.68 0 01-6.58 4.86l-1.16.44 5.65 9.85h-10l-5.03-8.94h-4.43l-1.78 8.94h-9.83zm8.37 7.13l-2.1 10.45h6.22a6.7 6.7 0 004.57-1.5h.01a5.7 5.7 0 001.71-4.29c0-1.42-.5-2.7-1.5-3.53-1.02-.81-2.4-1.13-4.03-1.13zm1.74 2.12h3.14c1.35 0 2.22.28 2.7.66.47.39.72.9.72 1.88 0 1.27-.35 2.09-1.03 2.73-.68.6-1.67.94-3.15.94h-3.63z"/>
</svg>
