<svg xmlns="http://www.w3.org/2000/svg" clip-rule="evenodd" stroke-linejoin="round" stroke-miterlimit="2" viewBox="0 0 1164 204" fill="#fff">
  <path d="M141 80l-7.5 43.1H70.2l-12.7 75.5H0L33.1.4h139.6L165 45H83.3l-6 35zm162.5 73.1l-7.7 45.5H149.9L183 .4h142.3L318 43.8h-85L227.7 75h71.6l-7.4 43h-71.3l-5.6 35.1zM484.7.4l-8 45.2h-90.4l-8.9 39c9-13.2 22.9-17.6 38-17.6a54 54 0 0141.3 17.5 59.8 59.8 0 0116.7 41.9c0 19.9-7.8 37.7-23 53.2-15.4 15.7-35.6 23.4-61.1 23.4a85 85 0 01-47.8-13.6 72 72 0 01-30-39l48.7-12.1c5.6 12.8 14.8 20.8 26.4 22 10.4.9 20.2-1.8 25.3-7.5 5-5.9 7.4-11 8.6-19a32.6 32.6 0 00-5.4-21.7c-4.4-5.9-13-8.3-20.5-8.3a31.6 31.6 0 00-25.5 14.6h-46L350.6.4zm104.7 45.2l-25.6 153h-57.6l25.8-153h-43.7L496.1 0h145.8l-7.4 45.5zM711.9.4l-33.3 198.2h-56.1L655.5.4zm191.4 0L814 198.6h-57.3L718.2.4h55.5l21.7 128c1.5-3.8 7.8-19 19-45.4L849.8.4zM952 158.2h-53l-18.6 40.4h-54.1L918 .4h62l30.7 198.2h-53.2zm-3.6-41l-7.7-57.3-26.2 57.3zM1164 151l-8 47.6h-135.2l33-198.2h60l-25 150.7z"/>
</svg>
