<svg xmlns="http://www.w3.org/2000/svg" width="1310.01" height="208.12" fill="#fff" viewBox="0 0 346.61 55.07">
  <path d="m.1 53.74-.1-.18 1.2-6.88 1.19-6.88 3.28-19.22L8.96 1.34l20.35-.1 20.36-.08-.18.8-.17.79-.72 4.41-.72 4.41-.2.97-.2.96-11.69.1-11.69.09-.61 3.7-.61 3.7-.19.98-.18.97h18.71l-.25 1.32-.25 1.32-.91 4.94-.92 4.94-9.25.1-9.26.09-.17.78-.18.8-1.26 7.58-1.25 7.58-.25.63-.25.62-8.41.08-8.41.08zm43.9.04v-.3l4.43-25.72 4.42-25.7.15-.45.16-.44h42.35l-.02.44-.02.44-.96 5.65-.96 5.64-12.72.1-12.73.09-.58 3.5-.58 3.51v.77l10.58-.1 10.59-.1-.03.88-.03.88-.94 5.29-.94 5.3-10.75.17-10.74.17-.6 3.36-.62 3.35-.02.44-.03.44h25.71l.17.26.16.27-.98 5.7-.98 5.69-.24.39-.24.39h-43Zm106.73-.04-.11-.18 1.73-9.88 1.74-9.88 1.58-9.05 1.58-9.05v-.41h-15.17v-.43l.9-5 .88-4.98.37-1.85.37-1.86h47.58v.82l-1.07 5.86-1.07 5.85-.18.79-.17.8h-15.1l-.2.96-.2.97-1.25 7.24-1.25 7.23-1.76 10.23-1.77 10.23-.26.8-.25.81-8.4.08-8.42.07zm36.3-.06-.15-.24 4.41-25.8 4.41-25.8v-.67h17.29v.46l-1.59 9.2-1.58 9.22-2.83 16.58-2.84 16.58-.08.29-.1.29-8.4.06-8.4.06zm37.21-.47-.29-.7-4.07-25.06-4.08-25.04v-.63l.01-.62 8.55.1 8.55.09 1.49 16.93 1.48 16.94.03.35.02.35 7.61-17.1 7.61-17.12.26-.27.26-.27 8.48.1 8.48.09-13.62 26.22-13.62 26.23-8.43.06-8.42.05zm23.52.6-.1-.1 8-15.07 8-15.07 5.05-9.52 5.04-9.53.93-1.67.93-1.68H293l.2 1.15.2 1.15 4.43 25 4.44 25-.15.15-.14.14h-16.4l-.21-.2-.2-.2-.38-3.08-.36-3.07-8.48-.1-8.48-.09-1.37 3.2-1.37 3.2-.28.17-.28.17-8.16.08-8.15.07zm35.53-18.66-.08-.64-.92-8.29-.91-8.28-.09-.09-.09-.09-4.03 8.67-4.03 8.67-.1.41-.1.41 5.22-.07 5.2-.07zm20.72 18.5v-.44l1.39-8.12 1.4-8.11 3-17.7 3.03-17.7v-.4h17.28v.38l-1.25 7.3-1.25 7.3-2.1 12.2-2.1 12.18v.85h22.89l.15.26.16.27-1 5.59-.98 5.58-.2.5-.19.5h-40.23zm-198.61.91a25 25 0 0 1-4.5-1.58 21.6 21.6 0 0 1-4.41-3.05 14.6 14.6 0 0 1-3.24-4.25c-.93-1.88-1.16-2.83-1.29-5.26l-.16-2.97h16.58l.22 1.38c.16.96.59 1.7 1.45 2.45a8.2 8.2 0 0 0 2.74 1.49c.84.23 2.39.31 3.5.2 1.1-.12 2.66-.47 3.45-.79.8-.32 1.76-.98 2.15-1.46.38-.5.64-1.2.64-1.62 0-.43-.3-1.15-.74-1.55s-1.43-1.03-2.2-1.41a91 91 0 0 0-7.41-2.56 77 77 0 0 1-8.44-3.08 19.4 19.4 0 0 1-4.29-3.08c-1.38-1.38-2-2.34-2.41-3.74a16 16 0 0 1-.56-3.84c0-1.08.24-2.96.53-4.17.29-1.22.98-3.13 1.55-4.25a21.2 21.2 0 0 1 2.64-3.83c.88-.98 2.6-2.44 3.82-3.23 1.22-.8 3.26-1.84 4.53-2.32a42 42 0 0 1 5.12-1.45 39.6 39.6 0 0 1 7.2-.6c2.93 0 5.31.2 7.06.6 1.46.34 3.29.93 4.06 1.32.78.39 2.15 1.25 3.06 1.9.91.67 2.13 1.93 2.72 2.82s1.38 2.59 1.76 3.78c.38 1.2.8 3.09.93 4.2l.23 2.03h-8.32c-7.28 0-8.26 0-8.27-.02-.07-.23-.28-1.53-.57-2.08a5.1 5.1 0 0 0-2.05-1.75c-1-.48-2.22-.74-3.55-.74-1.1 0-2.54.22-3.19.5a4.7 4.7 0 0 0-1.75 1.3 3 3 0 0 0-.45 1.52c0 .36.37 1.1.97 1.66.85.79 2.77 1.56 8.38 3.36 4 1.29 8.37 2.9 9.7 3.6 1.34.69 3.18 1.98 4.1 2.87a8.9 8.9 0 0 1 2.24 3.34c.33.97.59 2.82.59 4.18 0 1.34-.25 3.42-.56 4.61-.3 1.2-1.06 3.1-1.67 4.26a23 23 0 0 1-2.79 3.92c-.92 1-2.68 2.5-3.91 3.3a30.5 30.5 0 0 1-5.13 2.5c-1.6.59-4.26 1.3-5.93 1.6a51 51 0 0 1-14.13-.01"/>
</svg>
