<svg xmlns="http://www.w3.org/2000/svg" viewBox="0 40 675 320">
  <path d="M415.13 332.32h-12.96v12.96H311.4v-12.96h-12.96m-.26 0l-.14 12.83-25.86.07-25.86.06v-12.96H233.1v12.96h-51.6v-12.96h-13.22v12.96H77.52v-12.96H64.56v-12.7H51.59v-90.76h12.97V215.9h90.75v12.96h13.23V215.9h51.6v12.96H233.35V215.9h51.86v12.96h13.23V215.9h90.75v12.96h26.2V215.9h90.75v12.96h13.23V215.9h51.6v12.96h12.95l.07 32.35.07 32.35 19.51.06 19.51.07v12.96h12.97V345.28H532.34v-12.96h-13.23v12.96h-90.75v-12.96h-12.95m-305.48-12.7h32.42v-12.97h13.23v-26.2h-13.23V267.5h-51.6v-25.93H129.38v12.97h26.2l-.07-6.55-.07-6.55-6.55-.07-6.54-.07V228.6H77.53v12.69l-6.56.07-6.54.07v26.2l6.54.07 6.55.07v12.95h51.86v25.67H90.76l-.07-6.42-.07-6.41h-26.2l-.06 6.54-.08 6.55h13.24v12.97zm84.54 0h13.23v-38.9h12.43v12.97h12.97v12.96h13.23v12.97h26.2l-.07-6.55-.07-6.55-6.55-.07-6.55-.07v-12.96h-12.96v-12.96h-12.97v-12.7h12.97v-13.23h12.96v-12.97h13.23V228.6h-26.2v12.69l-6.54.07-6.55.07-.07 6.55-.07 6.55h-12.96v12.96H207.7l-.07-19.38-.06-19.38h-26.2l-.07 45.44-.06 45.45zm149.36 0h32.4v-12.97h13.24l-.07-32.6-.07-32.62-6.54-.07-6.55-.07V228.6H311.4v12.7h-12.96v65.35h12.96v12.97zm.13-13.23h-19.32v-64.83H363.27v64.82zm116.94 13.23h32.55v-12.97h12.96V241.3h-12.95l-.07-6.28-.07-6.29-32.48-.06-32.48-.07v12.7H415.4v65.35h12.96v12.97zm0-13.23H441.6v-64.83H480.22v64.82zm110.47 13.23h39.03l-.07-6.55-.07-6.55-25.86-.07-25.86-.07-.07-38.82-.07-38.83-13.03-.07-13.03-.06V319.62zm-292.5-25.93h6.62v-13.23h-13.23v13.23zm-5.82-120.92v12.7h-51.6v-12.7H208.24v12.7h-51.6v-12.7H143.4v12.7H39.7v-12.7H26.46V56.1h103.98v13.24l13.03-.07 13.03-.07.07-6.55.07-6.55h90.75v13.24l13.03-.07 13.03-.07.07-6.55.07-6.55h90.74v13.24l6.55-.07 6.55-.07.07-6.55.07-6.55h51.58v13.24l6.55-.07 6.55-.07.07-6.55.07-6.55h51.85v13.23h12.7V107.95h-12.7v12.96h-12.96v13.23h12.96v12.97h12.7v38.36h-51.6v-12.7H442.13v12.7h-51.6v-12.7H377.3v12.7h-90.76v-12.7h-12.96m-195.13-12.7h39.03v-12.96h12.96v-26.2h-12.96v-12.96h12.96v-26.2h-12.96V69.07H39.42V160.07zm6.48-13.23H65.62v-25.66H104.25v25.66zm0-38.89H65.62V82.02H104.25v25.93zm84.54 52.12h13.1v-25.93H221.18v25.93h26.2V81.76h-12.97v-12.7h-65.09v12.7h-12.96v78.31zm32.4-39.16h-19.3V82.02H221.18v38.89zm116.95 39.16h32.55v-12.96h12.96v-13.24l-13.03.07-13.03.07-.07 6.42-.07 6.41H299.5V82.02H338.14V95h26.2V81.76H351.36v-12.7h-65.09v12.7H273.3v65.35h12.97v12.96zm84.54 0h13.1v-38.89h12.69v12.96h12.97v12.97h12.96v12.97l13.17-.07 13.16-.07v-12.96l-6.55-.07-6.55-.08v-12.95h-12.96V120.9h-12.97v-12.96h12.97V94.99h12.96V82.03l6.55-.07 6.55-.07v-12.7l-13.16-.07-13.17-.07v12.71h-12.96v12.96h-12.97v13.23h-12.7V69.06H390.26V160.07zm199.36 25.4h-58.2v-12.7h-13.24V134.15l6.55-.07 6.55-.07.07-6.55.07-6.55h-13.24V69.33l6.55-.07 6.55-.07.07-6.55.07-6.55H635l.07 6.55.07 6.55 6.55.07 6.55.07v12.69h12.7v51.86h-12.7v13.23h12.7v38.36zm-12.96-25.4h45.5v-13.23h-39.15v-12.7h13.23V121.2l6.41-.07 6.42-.07.07-6.55.07-6.55h12.95v-26.2H622.3V69.07h-65.09v12.7h-12.96V107.95h26.2V82.02H609.06v12.7h-12.96v13.23h-13.23v12.96h-12.7v12.97H557.2v12.96h-12.96v13.23z" fill="#000"/>
</svg>
