<svg xmlns="http://www.w3.org/2000/svg" viewBox="0 0 685 560">
  <path fill="#fff" d="M44 135H3V16h41c37 0 56 20 55 57v6c1 37-18 57-55 56zm-2-21c22 0 30-15 29-35v-6c1-21-7-35-29-35H30v76h12zm213 21h-29l-43-74 1 24v50h-26V16h29l42 74V16h26v119zM360 16c21 0 43 8 42 33v3c0 10-4 18-13 22 10 4 17 13 17 24v3c0 26-23 36-45 35l-45-1V16h44zm-16 22v26h15c8 0 16-4 15-12v-2c1-9-7-13-15-13l-15 1zm0 47v29h18c8 0 16-5 16-14v-1c0-10-8-14-16-14h-18zM46 220c22 0 44 8 43 34v3c0 10-5 20-13 26 10 4 17 13 16 25v3c1 27-21 42-44 49-15 4-30 7-45 8V220h43zm-16 23v33l16-2c9 0 16-7 15-16v-2c1-9-7-14-15-14l-16 1zm0 62v36l19-4c9-3 16-10 16-20v-2c0-10-7-15-16-13l-19 3zm150 34h-28V220h44c24 0 46 9 46 37v3c0 15-7 28-21 33l21 46h-30l-18-43h-14v43zm17-64c9 0 18-6 17-16v-2c1-10-8-16-17-16h-17v34h17zm185-40v22l-54-10v27l45 9v23l-45-10v30c18 4 35 9 54 12v22c-28-6-54-14-81-19V222c27 3 53 9 81 13zm122-23c14 41 21 85 33 128-10 0-19 2-29 4l-7-26-32 9-6 28-30 6c13-45 22-91 33-136l38-13zm-30 89l22-6-11-47-11 53zm145-40l33-44 33 3-37 45 37 74h-31l-24-51-11 15v36h-27V207l27 5v49zM82 443c-15 0-32 3-42 15-4 4-7 9-9 15 6-4 14-6 21-6 21 1 38 16 37 38v2c0 25-21 38-44 38-26-1-46-18-45-44v-2c0-21 6-39 19-55 14-18 41-21 63-22v21zm-55 55v5c0 10 6 20 17 20h1c9 0 17-6 17-16v-3c0-9-7-16-16-15h-1c-7 0-14 3-18 9zm117-74h90v15l-47 104h-29l45-98h-35v21h-24v-42z"/>
</svg>
