<svg xmlns="http://www.w3.org/2000/svg" viewBox="0 0 960 1134">
  <linearGradient id="a" gradientUnits="userSpaceOnUse" x1="-86" y1="622" x2="1038" y2="622" gradientTransform="matrix(.8887 -.363 .3782 .9257 -203.7 116.8)">
    <stop offset="0" stop-color="#e7ff00"/>
    <stop offset="1" stop-color="#1c1c1c"/>
  </linearGradient>
  <path d="M556.9 1063.9a550.4 550.4 0 01-171.8 63.2c-89.7 15.8-187.5 3.5-264.8-52.3a339 339 0 01-25.6-20.6c-4.7-4.2-9-9.1-9.9-15.7-1.7-11.7-.9-23.3-.4-35.1.5-11.6 2-24-.3-34.8-1.3-6-5.1-10.8-8.9-16-6.1-8.2-11.9-17-17.2-25.8a432.5 432.5 0 01-17.5-32.9c-2.1-4.3-5.4-8.7-5.9-13.4-.9-8.8 6.3-18.2 10.4-25.9 8.7-16.4 18.1-32.3 27.4-48.3 22.4-38.1 47.3-75.2 65-115.7 1.8-4.2 5.1-9.5 4.4-14.2-1.2-8-8.1-15-12.4-21.9a5420.4 5420.4 0 01-59.2-96.8c-13.8-23.3-31.5-46.2-39.3-72.5-19.1-64.4-18.2-133.9-4.8-198.6C38.8 225 63.4 165.1 101 115.7a276.4 276.4 0 0169.3-65.5c34-22 72-36 111.7-43.5C339.4-4.2 399.5-.9 457.5 9.1a721.4 721.4 0 01174.4 53.1 498.7 498.7 0 0187.9 49.9c32.9 23.8 60 55 85.6 86.7 6.1 7.6 15 12.7 22.8 18.3 14.8 10.7 30 21.2 45.2 31.4 13.7 9.2 27.4 18.4 41.1 27.3 10.3 6.7 21 13.2 30.2 21.2 4.5 3.9 2.2 10.7.8 15.3-4.9 16.2-11.5 32.1-17.9 47.8-13.9 34.2-29 67.9-42.5 102.3-4.2 10.8-9.1 22.2-6.4 34.3a277.4 277.4 0 016.9 46.8c2 34.5-8 68.6-15 102.1-4.6 21.9-8.4 44.1-14.9 65.5a520.6 520.6 0 01-60.2 128 678.5 678.5 0 01-238.6 224.8zm234.3-857.7c-24.4-30.9-50.4-61.2-82.1-84.5a476 476 0 00-84.7-48.8 670.5 670.5 0 00-167.6-51c-56-9.5-114-12.2-169.2-1.2a304.6 304.6 0 00-108.1 43 271.1 271.1 0 00-66.5 63.1c-36 47.3-59.6 104.7-71.8 163.7-12.9 62.2-13.5 129.3 5.3 191.2 7.8 25.8 25.3 48.1 39 70.9 16.7 27.7 34 55.4 51.3 82.7 6.5 10.2 13.2 20.5 19.1 31 3.4 6 1.3 11.6-1.2 17.3-14.1 32.8-33.6 63.3-51.6 94.2-10.2 17.4-20.5 34.9-30.4 52.5-6.7 12-15.2 24.1-18.8 36.9-1.8 6.4-.4 11 2.7 17.3a320.8 320.8 0 0033.1 55.3c3.3 4.3 7.4 8.6 10.2 13 4.6 7.1 4.9 15.9 5 24.7.1 12.2-.7 24.7-.6 37 .1 7.5-.4 16.4 3.3 23.2 5.3 9.8 16.2 15.1 24.9 21.2 74.3 52.9 167.2 65.3 252.9 50.8a525.6 525.6 0 00166.2-60.2 644.8 644.8 0 00229.2-215c24.2-38 44.5-79.1 57.8-122.5 7.4-24.1 12-49.4 17.7-74.2 6.7-29 13.5-58.7 11.9-88.7a256 256 0 00-6.5-45.4c-3.3-14.7 6.8-30.1 12.1-42.8 15.1-36.5 31.2-72.7 45.8-109.4 4.5-11.5 9.3-22.8 12.2-34.9 1.3-5.4-.6-9.4-4.9-12.6-24-17.3-50.4-34.8-75.5-52-20.2-14.2-44.5-25.9-60.2-45.8zm-244.5 828.4a498.7 498.7 0 01-159.9 57.2c-81.5 13.4-169.6 1.4-240.5-48.2-11.2-7.8-19.2-15.5-20.6-29.3-1.9-18.9 1.6-39.3-1.8-58.7-1.9-11-11.9-18.8-18.2-27.2a300.7 300.7 0 01-32.3-52.8c-5.1-10.5.5-20.2 5.2-29.4 14-27.7 30.1-54.2 45.6-81 12.7-22 25.5-44.1 37.3-66.7 4.4-8.5 9.8-17.1 12-26.6a15 15 0 00-1.9-12.5c-6.4-10.3-13.2-21.2-20-31.6a4253.5 4253.5 0 01-51.2-81.1C86.8 524.6 69.9 503.1 62 478c-18.5-58.7-18-122.7-6-182.1a390.3 390.3 0 0168.2-157 264 264 0 0164.6-62c31.7-21 67.2-34.6 104.4-42.3 68.3-14.1 141.1-7 209.5 9.7 68.8 16.7 138 43.9 195.8 87 30.4 22.7 56 51.6 78.5 82.3 5.6 7.6 14.3 12.7 21.6 18.2a1489 1489 0 0037.3 27.3c23.9 17 48.6 33.5 72.1 50.6 4.7 3.4 9.3 6.3 10.2 11.6 1.5 8.9-6 20.4-9.5 29.4-13.1 33.7-27.8 67-42 100.3-6 13.9-12 28-17.3 42.1-2.1 5.4-4.7 11.4-4 17.3.5 4.6 2 9.4 2.8 14.1 1.7 9.9 2.8 20 3.3 30 1.3 25.3-2.9 50.4-8.6 74.9-6.5 27.8-12.5 56-20.9 83.2a485.4 485.4 0 01-56.2 118.1 619.4 619.4 0 01-219.1 203.9zm216.1-813.9c-21.7-29.6-45.9-57.9-75.1-80-55.1-41.8-121.5-68.2-187.5-84.1-65.8-15.9-135.8-22.3-201.4-8.2a287.5 287.5 0 00-100.6 41.5c-55.8 37.4-93.6 98.7-114.8 163.4-22.7 69.6-29 149.5-5.9 220.9 7.9 24.5 24.6 45.4 38 66.9 16.7 26.7 33.8 53.3 51.1 79.7l15.4 23.6c3.4 5.1 9.1 11 9.3 17.4.2 9.7-7.2 19.5-11.5 27.9a1253 1253 0 01-25.5 46.9c-16.1 28.5-32.8 56.7-48.5 85.4-6.5 11.9-20.9 29.1-16.3 44 3.1 10 9.7 18.7 15.3 27.4 10.3 16.1 23.4 30.3 35 45.3 10 13 5.9 33.8 6.1 49 .2 14.8.2 30.6 12.4 39.9 63.9 48.7 153.3 59.3 231.9 46.2a479 479 0 00151.2-53.9 586.4 586.4 0 00209.8-194.5 459.1 459.1 0 0053.7-112.6 1208 1208 0 0023.9-91.6 232.5 232.5 0 002.5-89.4c-.8-4.6-2.6-9.4-2.5-14.1.1-6.9 4-13.8 6.5-20.1 6.8-17.1 14.3-34.1 21.6-51 13.9-31.9 28.1-63.7 40.2-96.2 2.4-6.5 7-14.4 6.2-21.3-.8-6.6-10.2-10.8-15.1-14.4-24.3-17.6-49.6-35.1-74.1-53-10.3-7.5-20.5-15.3-30.6-23-6.9-5.5-15.2-10.6-20.7-18zm-226.4 784.6a460.5 460.5 0 01-144.2 50.9 333.2 333.2 0 01-120.7-1.4 278.9 278.9 0 01-77.9-28.6c-7.8-4.2-17.9-8.1-22.1-16.6-7.6-15.5-4.4-35.3-5.2-52-.4-7.7-.2-16.7-4.2-23.4-2.2-3.7-5.9-6.6-8.9-9.7a282 282 0 01-33.7-43.5c-5-7.8-12.4-16-13.4-25.2-.7-6.3 3.8-13.2 6.5-18.7 7-14.4 14.8-28.4 22.6-42.3 16-28.4 32.5-56.6 48-85.4a511.4 511.4 0 0020.1-39.8c2.1-4.7 5-10.5 3.8-15.8-1.4-6-6.5-11.2-9.9-16.3l-20.5-30.8a3442 3442 0 01-55.9-86.5c-9.9-15.9-22.1-31.6-28-49.7-22.3-68.1-16.8-144 4.8-210.4 20.2-62.1 56.5-120.9 109.8-157a279.8 279.8 0 0196.8-40.8c62.8-14 130.1-8.3 193.2 6.9 63.3 15.2 126.9 40.8 179.3 81.2a367.2 367.2 0 0171.6 77.6c5.3 7.3 13.4 12.4 20.3 17.9 9.8 7.7 19.8 15.4 29.8 22.9 24.2 18.1 49.2 35.9 73.3 53.6 5.3 3.9 15.6 8.2 16.7 15 .5 3.1-1.1 7.3-2.2 10.3-9.7 29.1-22.8 58.1-35.3 86.6-12.4 28.2-27.5 56.3-36.1 85.1a36 36 0 00-.6 17c1.5 9.3 2.4 18.9 2.8 28.3 2.1 50.9-14 100.9-29 148.7a440.8 440.8 0 01-52 108.2 555.6 555.6 0 01-199.6 183.7zm197.8-770.4a344.9 344.9 0 00-67.5-74.5C616.8 121.2 556 96.3 495.4 81.8 434.8 67.2 370.2 62.3 310 76c-33 7.5-64.4 20.4-92.4 39.5-51.1 34.8-86.1 91-105.4 150.7-20.4 63.2-26 136.7-3.9 200.3 6 17.3 17.6 32.4 27.4 47.9 16.4 25.9 33.3 51.8 50.5 77.2 12 17.7 24.8 35.7 35.8 53.4 2.4 3.8 1.6 7.9.4 11.8-4.3 14-12.2 27.4-19.2 40.4-14.9 27.9-30.7 55.5-46.1 83-10.9 19.4-23.5 38.5-30.7 59.3-2.3 6.6-2.6 12.1 1.2 18.4l7.4 12.3a265 265 0 0033.4 42.2c5.6 5.6 12.6 10.7 15.6 17.8 6.5 15.6 3.6 35.7 5.6 53.4 1.3 11.1 5.4 21 15.6 26.4a273.7 273.7 0 0075.3 27.3c37.7 7.5 76.5 7.3 114.1 1.2a435 435 0 00136.6-47.8A527.6 527.6 0 00722.5 815a433 433 0 0049.2-102.9c14.7-45.7 30.7-94.4 28.3-143.7-.4-8.7-1.3-17.4-2.5-26-1.4-9.8 3.3-19.1 6.8-27.6 12.9-31.3 27.3-62.1 40.9-93.1 9.7-22.2 19.9-44.8 27-67.6 1.1-3.5 2-7.6-.5-10.9-6.3-8.4-16.7-14-25.1-20.1a3530 3530 0 01-63.9-47.7c-9.7-7.4-19.4-15-28.9-22.7-6.6-5.6-14.5-10.6-19.6-17.8zm-208 741.2a413 413 0 01-131.1 45.1 307.3 307.3 0 01-106.5-1.4 269.4 269.4 0 01-49.1-14.9c-7.4-3-16.9-5.5-22-12.3-8.5-11.4-7-28.9-8.1-42.3-1-12.2-.9-27.1-10.4-35.9-5.7-5.3-11.8-10.5-17.3-16.1A271.2 271.2 0 01151 860c-2.9-4.2-6.2-8.4-8.1-13.1-3.8-9.6 4.2-20.7 8.3-29 24.6-49 53.9-95.7 78.2-144.9 4.1-8.2 11.7-18.6 11.1-27.2-.3-4.4-2.4-7.2-5.2-11.3-11.2-16.7-23.1-33.6-34.6-50.4-17.1-24.8-33.8-50-50.1-75.3-9.5-14.9-21.2-29.4-26.9-46.4-20.8-61.3-16.3-129.9 2.9-189.9 18.3-57.1 51.7-110.8 100.4-144.2a263 263 0 0188.5-38.5c57.5-13.5 119.2-9.3 177.2 4.5 57.8 13.8 115.8 37.7 163.1 75.5 25.1 20.1 45.6 46.7 64.1 72 5 6.9 12.3 12 19 17.5 9.2 7.6 18.6 15.1 28 22.5 20.7 16.2 41.9 32.1 62.8 47.9 8.9 6.8 18.3 13.2 26.2 21.1 1.5 1.5 2.7 2.8 3 5.1 1.1 10.2-6.3 21-9.9 29.9-5.1 12.5-10.4 25.1-15.9 37.5-12 27.5-24.6 54.8-36.7 82.2-5.8 13.1-16.2 27.9-15.6 42.8.3 8.4 2 17.2 2.3 25.7 1.8 43-11.3 85.9-24.4 126.6a456.9 456.9 0 01-51.1 109.9 499.5 499.5 0 01-181.4 165.6zm179.4-727.3a309.8 309.8 0 00-60.7-69.3c-44.7-36.3-99.8-59.3-154.9-72.4-55.3-13.1-114.2-16.8-168.9-3.5a255 255 0 00-84.6 37.4c-46.2 32.1-78.1 83.1-95.4 137.6-18.1 56.8-22.1 121.7-2 179.6 5.6 16.3 17 30.2 26.2 44.5 14.4 22.1 29.2 44 44.2 65.7l38 54.2c2.8 4 6.6 7.9 8.3 12.5 2.6 7.1-2.2 15-5 21.3-21.9 48.2-50.1 93.2-74.5 140.2-4.1 7.8-8.1 15.7-11.7 23.7-2.1 4.5-5.3 10.1-5.3 14.9 0 4.6 3.8 9 6.4 12.8 9 13 19 25.9 30.1 37.2 11 11.1 28.3 19.5 32.4 36.2 4.8 19.6-2.1 56.9 21.1 66.5 14.7 6.1 30 10.7 45.5 13.9 33.8 6.9 68.8 6.9 102.5 1.7 43.2-6.6 85-21.7 123.5-42.2A472 472 0 00692.4 806c24.1-36.5 40.5-77.6 53.9-119.7 11.2-35 20.7-71.6 19.4-108.7-.3-8.4-2.7-17.1-.8-25.4 4.7-20.9 16.3-39.7 25.1-59 12.2-27 24.7-54 36.4-81.2 4.5-10.5 8.9-21.1 12.8-31.7 1.9-5.1 5.6-11.8 4.5-16.7-.9-3.9-5.8-6.8-9-9.5-7.3-6-14.9-12-22.4-17.9-20.5-16-41.2-31.9-61.6-48-15.1-12-33.9-22.6-45.1-39.4zm-189.7 698a371 371 0 01-116.7 39.4 282 282 0 01-96.5-1.7c-12.9-2.5-33.5-4-40.2-17.5-5.9-11.9-7-25.8-9.1-39.1-1.6-9.9-2.7-22-10.6-28.8-10.7-9.1-23-17.1-33-27a253.4 253.4 0 01-29-35.3c-4.5-6.6-2.7-12.7.1-19.4 8.2-19.8 18.8-38.4 29.1-57.2 21.1-38.8 44.8-76.6 60.9-117.9 1.8-4.6 2.9-9.5.6-14.2-3.2-6.5-8.4-12.2-12.7-18.2A2694.1 2694.1 0 01180.1 497c-9.2-13.9-19.9-27.3-25.7-42.9-37.8-102.5 4.8-239.4 91.6-300.4a242.5 242.5 0 0180.6-36.3c51.9-13 107.9-10 160.5 2.5 52.2 12.4 104.5 34.4 146.7 69.1a287.7 287.7 0 0157.3 66.5c8.3 12.8 22.6 21.5 34 30.9 19.8 16.3 40 32.5 60.2 48.4 10.8 8.5 21.7 17.2 32.3 25.9 3.1 2.6 6.5 5.1 8.9 8.1 6.6 8.4-4.3 25.5-7.8 34-20.3 49.3-44.8 96.7-65.2 145.9-3 7.1-5.9 14.6-5.2 22.6.3 3.5.5 7.1.6 10.6.7 31.3-5.5 61.9-14.8 91.2-14.3 44.8-30.5 89.2-56.3 128a443.1 443.1 0 01-161.9 145.7zm160.9-684.3c-34.5-54.4-89.7-95-148.1-116.6-62.2-23-132.6-31-196.4-14.4a223.4 223.4 0 00-143.5 113.3C157.5 304.5 147 384.1 169.9 450c4.5 12.8 13.5 23.8 20.9 35A2296.7 2296.7 0 00269 595.8l13.1 18c2.8 3.8 7.7 8.4 7.7 13.3.1 4.5-2.3 9-4.1 13.2-4 9.5-8.5 18.8-13.1 28-11.2 22.4-23.2 44.4-35 66.4-10.1 18.7-20.3 37.4-29.8 56.4-4.6 9.3-16.1 24.6-11.7 34.9 2.5 5.9 7.6 10.9 12 16a207.3 207.3 0 0047.2 42.4c5.6 3.7 12.5 7 15.4 13.4 5 10.8 6.5 23.1 9.1 34.8 2 8.7 3.9 18.3 9.6 25.5 4.9 6.3 13.5 7.5 20.8 8.9 30.4 5.8 61.2 6.2 91.3 1.6A349.9 349.9 0 00510.8 932a415.9 415.9 0 00153.3-137.5c25.6-38.7 41.2-83.5 55.3-128a238.1 238.1 0 0012.3-80.1c-.1-3.8-.7-7.7-.5-11.5.6-12.3 9.1-24.2 14.1-35.4 21.5-47.3 45.5-93.9 63.9-142.5 1.5-4.1 3.3-8.2 4-12.5.7-4.4-2.3-7.7-5.3-10.4-12.6-11.5-26.7-22.6-40.2-33.5a3383.5 3383.5 0 01-58.4-48c-11-9.1-24.6-17.6-32.5-30.1zm-171.1 655a328.7 328.7 0 01-102 33.9 271.3 271.3 0 01-44.2 2.9c-12.7-.2-30.2 2-41-6.7-14.4-11.8-14.9-34.3-20.9-50.8a31.2 31.2 0 00-14.5-17.9 210.6 210.6 0 01-47-34.3c-7.8-7.6-25.3-20.1-22.2-33 4.4-18.8 15.4-35.3 24.2-52.1 10.2-19.6 20.7-39 31.1-58.5 9.3-17.5 18.4-35.2 26.9-53.1 3.9-8.2 12.4-20.3 9.1-30.2-1.7-5.1-6.2-9.1-9.3-13.2L282.1 586c-13.9-18.7-27.8-37.4-41.4-56.3a1782 1782 0 01-35.4-51c-7.2-10.7-15.9-20.9-20.2-33.2-21.3-62-12.3-136.3 17.1-192.6a213.2 213.2 0 01135.5-107.8c60.1-16 126.7-9 185.4 12.9 55.2 20.6 107 59.3 139.1 111 7.5 12.1 20.6 20.5 31 29.5 17 14.6 34.3 29.2 51.7 43.5 14.5 12 29.3 24 43.4 36.3 3.3 2.9 8.5 6.1 9.8 10.3.9 2.8-.7 6.7-1.6 9.4a595 595 0 01-21.6 52c-10.6 23.3-21.5 46.4-32.4 69.6-8.5 18-17.2 36-24.7 54.4a42.4 42.4 0 00-3.3 16.6c.3 25.8-4 51.2-11.8 75.3-6.2 19.2-14.1 38.1-21.7 56.8-9.4 23-18.4 46.3-31.8 66.9a379 379 0 01-143.5 127.9zm142.1-641.6a264.7 264.7 0 00-130.1-105.2c-55.2-20.7-117.9-27-174.3-11.5a202.5 202.5 0 00-127.5 102.2c-27.4 52.7-35.6 121.9-15.4 180 3.4 9.7 10.2 17.9 15.9 26.4 10.8 16.1 22 32 33.4 47.7 22.7 31.3 47.2 62.1 69.7 93.1 4.3 6 2.1 12.2-.2 18.3a455.1 455.1 0 01-20.7 44.2c-19.3 37.9-40.3 75-58.3 113.4-3.5 7.5-10.7 17.7-8.5 26.3.7 2.6 3.6 5.2 5.3 7.2a177.7 177.7 0 0041.7 36.6c10.1 6.4 21.5 11 32.1 16.6 14.4 7.6 16.6 27.7 22.6 41.4 5.9 13.3 15 23.9 30 24.2 13.6.3 27.1-.6 40.5-2.4 33.7-4.8 66.4-16 96.6-31.5 55.2-28.3 107.9-71.7 137.5-128.5 11.9-22.9 22.3-46.7 32.6-70.4 5.5-12.8 11.3-25.6 15.6-38.8 3.8-11.5 6.8-23.6 8.6-35.6 1.7-11.3 1.1-23.6 2.6-34.9 1.4-10.4 7.3-19.9 11.7-29.4 10.5-22.9 21.6-45.6 32.4-68.3 9.3-19.5 18.5-39.2 27.2-59 5.2-11.8 13.4-24 14.2-37.1.5-8.7-10.1-14.4-15.7-19.2-14.8-12.7-30-25.5-45-38.2a2787.3 2787.3 0 01-45-38.9c-10.1-9-22.2-17.1-29.5-28.7zM495.4 888.2a279.6 279.6 0 01-89.4 28.9 39.4 39.4 0 01-35.8-11.7c-8.6-9.2-13.9-21.2-20.6-31.7-6.9-10.9-18.5-14.3-29.5-18.8a182.2 182.2 0 01-57.3-37c-4.2-3.9-8.8-7.8-11.6-12.3-3.1-5 0-11.9 2.1-17.2 5.8-14.5 12.9-28.4 20-42.3 17.8-34.8 36.5-69.3 53.3-104.7 4.6-9.8 12.5-20.8 12.3-31.8-.1-6.4-6.3-11.8-10.1-16.6a3012.8 3012.8 0 01-65.8-86.3c-10.9-14.8-21.6-30-32-45.1-5.5-8-11.8-15.8-15.2-24.8-40-105.3 27.1-234.4 133.2-263.8 52.8-14.6 110.6-7.1 162 13.2 47.8 18.9 94.8 50.9 122.3 96.3 6 9.8 15.8 16.7 24.2 24.3 15.3 14 30.9 27.7 46.5 41.3 13.7 11.9 27.7 23.6 41.3 35.7 5.6 5 11.3 9.9 16.6 15.2 1.7 1.7 4.7 4 5.4 6.2 2.6 7.7-3.6 16.8-6.5 23.6-7.2 17.3-15.1 34.3-23 51.2-17.4 36.8-37.5 73.2-52.5 110.4-5.2 12.9-5.2 27.4-7.4 41.1-1.8 11-4.6 22.1-8 32.6-9.3 28.5-24.3 55-37.9 81.6-17.5 34.3-36.4 67.9-64.7 93.3a333.3 333.3 0 01-71.9 49.2zm123.4-599.3c-25.2-42.6-68.7-72.8-113.3-90.4-47.9-19-101.7-25.6-150.9-11.7-98.3 27.9-160 144.4-123.6 245.6 3.1 8.6 9.2 15.8 14.3 23.2a2293.5 2293.5 0 0092.9 122.8c5.3 6.5 11.7 12.7 15.6 20 3.1 5.6-.4 12.8-2.6 18.2-12.9 31.8-29.4 62.3-45.1 92.9-8.2 16.1-16.5 32.1-24.3 48.4-4.6 9.7-10 19.6-12.4 29.6-1.9 7.8.9 12.1 7.1 17.6 7.8 7 15.9 13.7 24.7 19.3 18 11.5 38.5 19 59 23.5 22.6 4.9 31.8 31.7 52.6 40.4 25.4 10.7 55.3-3.4 77.6-14.7a229 229 0 0069-52.6c25-28.7 43.5-62.8 63.2-95.8a315.1 315.1 0 0030.8-62.1 210.5 210.5 0 009.4-45.4c1.6-15.9 10.8-29.9 17.5-43.8 17.7-36.5 36-72.7 53-109.5 6.2-13.4 12.2-27 17.3-40.6 2.1-5.8 1.6-10.9-2.9-15.5-20.6-21.1-44.1-40-66.4-59.8a2758.2 2758.2 0 01-39.8-36.2c-7.9-7.3-17.2-14-22.7-23.4zM491.6 842.2a77.4 77.4 0 01-67.1 3.1c-9.3-4.2-18.2-9.3-27.9-10.8s-20.4-1.7-30.2-3.6c-18.8-3.7-37.3-11-53.9-21.4a110.2 110.2 0 01-22.6-17.5c-9.7-10.3 5.4-31.8 9.9-41.3 13.4-28.3 27.9-56.1 41.8-84.1 7.3-14.7 14.6-29.5 21.2-44.6 3.4-7.7 8.2-15.8 8.7-24.4.3-4.7-3.1-8.3-5.9-11.6-6.8-8.2-13.7-16.9-20.6-25.4a2766.2 2766.2 0 01-63.5-81.2c-12.5-16.6-27.6-32.3-35.3-51.7-36.2-91.7 24.9-200.8 114-227 45.3-13.3 95.4-7.3 139.7 10.3 41.3 16.4 81.3 44.7 104.4 84.4 4.6 7.9 12.3 13.8 18.8 20.1 12.4 11.9 25.1 23.8 37.9 35.5 22 20.1 44.9 39.8 66.1 60.3 3.6 3.5 9.7 7.9 9.8 13.6.2 9-5.8 17.6-9.3 25.5-14.1 32-29.8 63.5-45.5 94.7-12.2 24.3-27.7 48.4-35.5 73.8-1.5 4.8-1.9 10.3-2.8 15.4-1.5 9.3-4 18.7-7 27.7-6.5 20-16.4 38.9-28 56.1a854.2 854.2 0 01-50.9 67.3c-18.9 22.5-40.2 43.9-66.3 56.8zm98-540.5c-42.3-74.1-147-110.4-223.8-87.2-81.5 24.6-137.2 122.5-104.3 208.6 6.6 17.2 20.2 30.8 31 45.2 19.2 25.5 39.2 50.6 59.4 75.2 8 9.7 16 19.5 24.1 29 3.7 4.3 8.8 8.3 11.1 13.6 2.1 4.8-.1 9.8-1.6 14.3-3.7 10.7-8.4 20.9-13.1 31.2-12 26-25 51.6-37.7 77.2-10.3 20.8-24 42.2-28.3 64.4-1.1 6 .7 10 5.8 13.7 3.6 2.6 7.4 5.4 11.2 7.8 31.8 20.3 70.3 25.8 106.5 21.4 22.8-2.8 46.1-4.8 66.6-14.8 21-10.3 39-26.5 56.5-42.5a266.9 266.9 0 0041.5-46.7 208.9 208.9 0 0025.6-50.8c2.8-8.4 4.8-17.2 6.6-26 2.6-12.4 9.2-23.4 14.8-34.5 13.9-27.7 28.1-55.2 41.9-83 12.1-24.4 24.5-48.9 34.5-74.1 1.7-4.3 4.9-10.7 1.6-15.2-4.7-6.5-10.5-11.7-16.3-17.2-21.6-20.5-44-40.6-65.7-61-9.9-9.3-19.7-18.8-29.3-28.2-6.4-6.4-14.1-12.4-18.6-20.4zm-95.9 478.5a199.9 199.9 0 01-62.7 19.1 154 154 0 01-96.2-19.2c-3.6-2.1-8.8-4.4-10.1-8.4-1.3-4.1 1.2-9.5 2.7-13.7 2.9-8 6.1-15.9 9.6-23.7 20.2-45.3 45-88.9 62.9-135.1 2.1-5.4 6.2-12.4 4.5-17.9-1-3.4-4.5-6.2-7-8.9-13-14.6-26-30.4-38.8-45.7a2038.7 2038.7 0 01-56.8-71.3c-8.9-11.6-20.2-23-25.5-37-29.3-78.2 19.9-167.7 94.7-190 70.3-20.9 166.3 9.5 203.6 79.6 3.5 6.5 9.6 11.4 14.6 16.5 8.6 8.8 17.4 17.5 26.2 26 20.1 19.5 40.7 38.5 61 57.9 7.3 6.9 14.5 14.1 21.4 21.3 3 3.1 7.2 6.7 7.3 11.2.2 6.5-4.2 13.1-6.8 19.1-5 11.3-10.3 22.6-15.7 33.7-22.1 45.3-47.5 89.7-68.6 134.9-4.5 9.7-7.2 20.6-10.6 30.8a188.3 188.3 0 01-23.8 46.9 221.3 221.3 0 01-85.9 73.9zm66.6-466c-33-64-119.9-91.3-183.4-72-67 20.4-113.6 104.5-85.1 171.3 2.8 6.5 7.5 12.3 11.8 18.1a1331 1331 0 0025.4 33.3c20 25.2 40.7 50 61.8 74.2 7.4 8.5 14.9 17.3 22.4 25.5 3 3.3 7.3 6.7 8.3 11.2 1.5 7-3.8 15.3-6.4 21.8a807 807 0 01-15.6 35.8c-12.5 27.2-25.8 54-38.1 81.3a538 538 0 00-10.5 24.7c-2.6 6.7-6.9 14.4-6.2 21.5.8 9.2 16.3 12.7 23.4 15.2 40 14.2 84 7.4 120.5-10.3 30.7-14.9 58-37.8 77.6-66.2 8.9-12.8 16-26.9 21.3-42 7.7-21.9 19.7-41.7 30.5-62 21.6-40.5 43.4-81.3 62.7-122.9 3.4-7.3 12.9-20.7 6.8-29-10.3-14-23.4-25.2-35.8-37.1a7687.5 7687.5 0 01-57.7-56.1c-11.5-11.2-26.1-21.6-33.7-36.3zm-77.1 437.2c-32.3 15.5-71.8 20.6-106.8 8.8-3.7-1.2-9-2.5-10.7-5.9-1.6-3.3.2-8.3 1.3-12a271 271 0 018.9-24.8c17.8-43.4 40.4-85 57-129.1 2.9-7.7 8.2-18.1 1.4-25.6a2139.1 2139.1 0 01-93.8-108.6c-11.6-14.4-26.5-28.1-33.5-45.8-24.8-62.9 16.3-133.7 75.6-152.6 57.1-18.2 133.2 7.9 163.1 64.3 7 13.1 19.7 22.9 29.9 33.2 15.4 15.6 31 31.2 46.6 46.6 13.3 13.2 26.8 26.4 39.6 40 6.2 6.5 12.9 12.6 10.7 21.3-3.2 12.5-11 25.5-17.3 38a2249 2249 0 01-28.9 55.6c-16.9 31.7-34.8 63.2-51.5 94.9-7.5 14.3-13.6 29.6-22.6 42.8a175.3 175.3 0 01-69 58.9zm47.7-425c-26-50-92.6-72.8-142.8-56.5-51.8 16.8-87.7 78.6-66 133.8 5.5 13.9 17.4 25.1 26.6 36.4A1852 1852 0 00440 544.2c5.1 5.3 14.8 10.8 15.3 18.9.9 13-7.6 26.1-12.4 37.8-7.7 18.6-15.9 37-24 55.4-7.5 17-15 34.1-21.8 51.5-4 10.2-9.4 21.1-9.2 32.3.3 14.2 32.5 10.8 40.9 10.2 17.2-1.3 33.8-5.9 49.2-13.2 31.9-15.1 55.5-41.7 73.4-72.9 18.8-32.9 37.7-65.7 56-98.9 9.8-17.8 19.4-35.7 28.7-53.6 7.2-13.8 15.4-27.4 20.1-42.5 2.6-8.5-5.3-15.3-10.3-20.8a1269.2 1269.2 0 00-41-42.7 4452.3 4452.3 0 01-48-49.3c-9-9.5-19.9-18.2-26-30zm-58.2 396.1a121.6 121.6 0 01-41.3 11.1c-5.2.5-16 2.5-17.6-5-1.2-5.6.5-11.5 1.9-16.9 3-11.6 7-22.7 11.3-33.8 11.1-29 23.8-57.4 35-86.4 4-10.4 9-21.3 10.3-31.8.8-6.6-2.3-9.4-7.2-14.1-23.4-22.3-45.6-47-67.3-71.6a1409.5 1409.5 0 01-40.4-47.6c-7.1-8.8-15.8-17.1-20.2-27.8-19.6-47 12.9-100.1 56.5-114.9 42.9-14.5 100.7 5.4 122.5 48.7 5.1 10.2 14.3 17.7 21.9 26 11.9 13 24.1 25.8 36.3 38.6 13.8 14.4 27.7 28.8 41.3 43.4 7.8 8.4 15.6 16.9 22 26.1 3.2 4.6 2.1 9.8.1 14.5-5.8 13.4-12.7 26.2-19.6 39.1-17 31.6-34.9 62.7-53.2 93.6-25 41.9-47.6 87.9-92.3 108.8zm28.7-384.2c-18.6-34.9-66.3-52.4-102.2-40.7-37.2 12.1-62.7 57-47 95.9 3.4 8.5 10.5 15.4 16.2 22.3a1413.2 1413.2 0 0095.2 104.5c6.5 6.5 13.2 13.3 20 18.9 3.1 2.6 7.4 5.3 7.3 9.9-.1 6.8-2.3 13.2-4.4 19.7-3.1 10-6.5 19.8-10.1 29.6-6.9 19.1-14.1 38.1-20.3 57.4-4 12.5-8.2 25.5-8.6 38.7-.3 13.9 11.9 15.4 21.6 10.6 17.6-8.7 30.3-24.1 42.3-39.8 28.7-37.7 53.3-78.5 77.3-119.5 11.1-19 22.4-38.4 31.7-58.1 5.9-12.5-8.2-24.4-15.3-32.7-19.6-22.7-40.5-44.6-60.9-66.7-9.1-9.9-18.2-20-27.1-30-5.4-6.4-11.8-12.6-15.7-20zm7.7 282.8c-12.3 6.9-9.2-16.6-8.2-22.4 1.7-10.2 4.1-20.3 6.4-30.3 2.1-8.8 5.8-18.8 4.1-27.9-1.2-6.8-9.8-9.8-14.6-13.7a587.1 587.1 0 01-45.5-42.6 1479.7 1479.7 0 01-51.5-54.9c-11.3-12.7-25.8-24.7-32.6-40.8-13.4-31.5 8.4-66.8 37.6-76.9 29.1-10 67.5 2.9 81.8 32.7 6.9 14.4 20 25.4 30.3 37l50 56.5c11.8 13.5 23.9 26.8 33.3 42.2 4.2 6.9 3.4 12.5-.3 19.2a756.4 756.4 0 01-48.8 76.1 348.3 348.3 0 01-24.5 30.8 73.7 73.7 0 01-17.5 15zM471.8 350c-10.5-22.4-39.7-32.5-61.4-24.7-21 7.6-38.9 34.4-28.1 57.8 4.2 9.2 12 16.3 18.5 23.7 12.5 14.3 25.5 28.2 38.7 41.7a611.6 611.6 0 0070.8 64c5.7 4.2 11.7 8.9 18.4 10.9 2.9.9 6.3 1.1 9.1 2.4 5 2.3 9.4 6.1 15 3 9-4.9 15.6-12.6 22.2-20.2 2.5-2.9 5.8-6.1 6.5-9.9 1-5.5-2.5-11.4-5.3-16.3-14.1-24.5-33.2-45.7-51.4-67.2-11.4-13.6-23-27.2-34.3-40.8-6.5-7.8-14.4-15.1-18.7-24.4zm73.7 156.5c-6.8 2.9-17.3-9.7-29.3-19.8-12.1-10.2-26.4-16.9-38.6-27.1a680.4 680.4 0 01-49.7-46.4c-10.6-10.8-24.4-21.1-30.7-35.5-6.8-15.8 4.3-33.4 18.7-38.6a34.3 34.3 0 0140.9 16.5c7.7 15.7 112.4 140.8 88.7 150.9zM442 361.3a17 17 0 00-20.5-8.3c-7.1 2.6-12.9 11.5-9.4 19.3 5.7 12.4 18.8 21 28.7 29.4 6.5 5.5 71.8 69.3 80 65.6 5.9-2.7-56.4-70.1-58.7-73.9-6.5-10.7-14.7-20.7-20.1-32.1z" fill="none" stroke="url(#a)" stroke-miterlimit="10"/>
</svg>
