<svg xmlns="http://www.w3.org/2000/svg" viewBox="0 0 1600 800">
  <path d="M5 420l1000-1000M5 450l1000-1000M5 480l1000-1000M5 510l1000-1000M5 540l1000-1000M5 570l1000-1000M5 600l1000-1000M5 630l1000-1000M5 660l1000-1000M5 690l1000-1000M5 720l1000-1000M5 750l1000-1000M5 780l1000-1000M5 810l1000-1000M5 840l1000-1000M5 870l1000-1000M5 900l1000-1000M5 930l1000-1000M5 960l1000-1000M5 990l1000-1000M5 1020l1000-1000M5 1050l1000-1000M5 1080l1000-1000M5 1110l1000-1000M5 1140l1000-1000M5 1170l1000-1000M5 1200l1000-1000M5 1230l1000-1000M5 1260l1000-1000M5 1290l1000-1000M5 1320l1000-1000M5 1350l1000-1000M5 1380l1000-1000M5 1410l1000-1000M5 1440l1000-1000M5 1470l1000-1000M5 1500l1000-1000M5 1530l1000-1000M5 1560l1000-1000M5 1590l1000-1000M5 1620l1000-1000M5 1650l1000-1000M5 1680l1000-1000M5 1710l1000-1000M5 1740l1000-1000M5 1770l1000-1000M5 1800l1000-1000M5 1830l1000-1000M5 1860l1000-1000M5 1890l1000-1000M5 1920l1000-1000M5 1950l1000-1000" stroke="#000" stroke-width="8"/>
</svg>
