<svg xmlns="http://www.w3.org/2000/svg" viewBox="0 0 959 158">
  <path fill="#fff" d="M56.5 95.9l-13.4 58.4H0l34.7-150h118.1l-8.4 36h-75L65 60.7h58.4l-8.2 35.3zM124.2 154.3L159 4.3h121.7l-8.4 36.3h-78.6L189.2 60h62.2l-8 34.5h-62.2l-5.2 23.3h78.6l-8.4 36.4zM366.2 49a11.4 11.4 0 00-2.2-7.3 14.7 14.7 0 00-5.5-4.3 23.6 23.6 0 00-7.3-1.9 77.3 77.3 0 00-7.9-.4l-7.8.2a34.4 34.4 0 00-8.5 1.5 17.7 17.7 0 00-7 3.9 9.4 9.4 0 00-2.8 7.2 6.8 6.8 0 002.1 5.2 16.2 16.2 0 005.3 3.2 41 41 0 006.5 2q3.4.8 5.9 1.2l12 2.3c4.3.8 8.6 1.8 12.8 2.8a106.6 106.6 0 0112 3.8 51.3 51.3 0 0110.3 5.2 28.4 28.4 0 019.3 10.6q3.3 6.4 3.3 17.3 0 15-6.4 25.7a52.3 52.3 0 01-17.3 17.5 79.9 79.9 0 01-25 10.1 134.5 134.5 0 01-30.2 3.3 90 90 0 01-22.2-2.7 58.1 58.1 0 01-19-8.5 43.4 43.4 0 01-13.3-14.7q-5-8.8-5-21.2c0-1.1 0-2.2.2-3.1s.2-2 .3-3H298a15.1 15.1 0 003.5 9.2 20.3 20.3 0 007.6 5.3 36.4 36.4 0 009.7 2.5 86.5 86.5 0 0010.3.7l8.1-.2a37.7 37.7 0 009-1.5 18.8 18.8 0 007.4-4c2-1.8 3-4.4 3-7.8a6.7 6.7 0 00-2.1-5.3 15 15 0 00-5-2.9 116.8 116.8 0 00-13.8-3.3q-7.7-1.3-15.6-3.2a135.1 135.1 0 01-15.5-4.8 44.1 44.1 0 01-13.5-7.8 37 37 0 01-9.5-12.7q-3.5-7.7-3.5-19.3 0-12.8 5.6-22.1A47.3 47.3 0 01299 12.2 72.6 72.6 0 01321.2 3a115.7 115.7 0 0127-3 89.5 89.5 0 0122 2.6 58.5 58.5 0 0118.3 7.9 39.4 39.4 0 0112.4 13 35.4 35.4 0 014.5 18v3.6a17.4 17.4 0 01-.5 3.8zM427.2 154.3L452.8 43H411l9.3-38.7H547L538 43h-41.9l-25.6 111.4zM518.2 154.3l35-150h43l-34.7 150zM615 154.3l-15.2-150h44.8l5.8 91.8 47-91.9H739l-84.1 150.1z"/>
  <path d="M754.3 154.3l7.1-30.7h-70.2l6.8-29.8 83.6-89.6h48.2L810 89.6h22.5l-7.8 34h-22.5l-7.1 30.7zm25.6-107.2l-39.5 42.5h29.7z" fill="none" stroke="#fff" stroke-miterlimit="10" stroke-width="5"/>
  <path fill="#fff" d="M825.6 154.3l34.6-150h43.3l-25.8 111.3h82.2l-8.8 38.7z"/>
</svg>
