<svg xmlns="http://www.w3.org/2000/svg" width="2209" height="305" fill="#fff">
  <path d="M77.7 62h181.8l-16.7 51h-108l-13.6 41.5h92.3l-15.7 48.1h-92.1L73.9 300H0zm356.7 0h73.3l-46.3 141.8q-6.8 21-19.6 39.9-12.6 18.7-31.4 32.8-18.5 13.9-35.8 19.6-23.9 8-54 8-17.3 0-37.1-2.4-19.7-2.5-31.1-9.6-11.5-7.3-18.6-20.6-7.1-13.3-6.7-27.5.6-22.8 6.3-40.2l46.3-141.9h73.4l-47.5 145.4q-6.3 19.4.8 30.4 7.3 10.9 26.4 10.9 19 0 33.2-10.7 14.5-10.9 21-30.7zm102.9 0H606l46.7 131.5 43-131.7H765L687.3 300H618l-46.6-130.7L528.8 300h-69.2zm257.2 0h73.6l-29.4 89.8 106.4-89.9h97.8l-116 89.8L969 299.9h-90.5l-18.2-97.8-51 39.7-18.9 58.1h-73.5zm192.2 159.1l71.5-4.3q-3.3 17 .7 26 6.7 14.4 27.8 14.4 15.7 0 26.5-7.3 11-7.5 14.3-17.3 3-9.2-2.7-16.5-5.8-7.3-33.2-13.8-45-10.9-59.6-28.8-14.9-18-5.8-46 6-18.4 21.8-34.6 16.1-16.4 40.4-25.7 24.5-9.5 61.7-9.5 45.6 0 64 17.1 18.4 17 10.9 54l-70.7 4q2.5-16-4-23.4-6.4-7.3-22-7.3-12.8 0-21.2 5.6-8.2 5.3-10.7 13.1-1.9 5.7 2 10.3 3.7 4.7 22 8.7 44.7 10.5 62 21.1 17.5 10.6 21.8 26.3 4.4 15.8-2 35.2-7.5 23-26.4 42.3-19 19.3-45 29.4-26 9.9-60.5 9.9-60.8 0-76.5-23.4-15.7-23.4-7-59.5zM1255 62h223.7l-19.1 58.6h-75L1326 300h-73.5l58.5-179.3h-75zm240 0h73.8L1491 299.8h-73.7zm82.9 0h77l-2.4 171.2L1761.2 62h74.7l-166 238h-79.6zm343.7 198.6h-83.8l-24.2 39.3h-75.3l167-238h80.3l11.8 238h-77zm1.4-51.4l1.6-85.6-54 85.5zM2078.4 62h73.7l-58.6 179.3h114.8l-19.1 58.6h-188.5zM98.6.7h31.3L127 9.5h-18.6l-2.3 7.2H122l-2.7 8.3h-16l-5.5 16.8H85.2zm34.7 0h34l-2.9 8.8h-21.3l-2 6.5h19.6l-2.7 8.4h-19.7l-2.6 8h21.9l-3 9.4h-34.7zm26.8 27.5l12.3-.8q-.5 3 .2 4.5 1.2 2.5 4.8 2.5 2.7 0 4.5-1.3 2-1.2 2.5-3 .5-1.5-.5-2.8-1-1.2-5.7-2.4-7.7-1.8-10.3-5-2.6-3-1-7.9 1-3.1 3.9-6 2.7-2.8 6.9-4.3Q181.9 0 188.2 0q8 0 11 3 3.3 2.9 2 9.3L189 13q.5-2.8-.7-4-1.1-1.3-3.8-1.3-2.2 0-3.6 1-1.4.8-1.8 2.2-.4 1 .3 1.8.6.8 3.7 1.5 7.8 1.8 10.8 3.6 3 1.8 3.8 4.5.6 2.8-.4 6.1-1.3 4-4.5 7.3-3.3 3.3-7.8 5-4.5 1.8-10.4 1.8-10.5 0-13.2-4-2.7-4-1.3-10.3zM206.4.7H245l-3.3 10.2h-13l-10 30.9H206l10-31h-13zm41.4 0h12.7l-13.3 41h-12.7zm14.2 0h13.4l-.5 29.7L293.5.8h13l-28.6 41h-13.7zM321.4 35H307l-4.2 6.8h-13l28.8-41h13.8l2.1 41h-13.3zm.2-8.9l.2-14.7-9.3 14.7zM348.4.7H361l-10.1 31h19.8l-3.2 10H335zm50.5 0h21q7 0 9.3 3.3 2.3 3.3.4 9.3-2 6.2-6.9 9.7-4.8 3.5-12.5 3.5h-7l-5 15.3h-12.7zm7 17.5h3.2q3.6 0 5.5-1.2 1.9-1.3 2.6-3.3.6-2-.3-3.3-.9-1.3-4.4-1.3h-3.7zm17.8 23.6L437 .8h21.2q5.8 0 8.7 1 2.7 1 3.8 3.7 1 2.7-.2 6.6-1.1 3.4-3.5 6-2.3 2.4-5.3 4-1.9 1-5 1.6 2 .7 3 1.5.5.5 1.2 2.1.8 1.7 1 2.6l2.1 11.9h-14.2l-2.7-12.6q-.5-2.4-1.3-3.1-1-1-2.8-1h-1l-5.5 16.7zm20.8-24.4h5.3q.9 0 3.5-.6 1.3-.3 2.5-1.3 1-1 1.5-2.4.7-2-.2-3-1-1-4.5-1h-5.5zM478 .7h34l-2.8 8.8H488l-2 6.5h19.6l-2.7 8.4H483l-2.6 8h21.8l-3 9.4h-34.7zm27 27.5l12.2-.8q-.6 3 .1 4.5 1.2 2.5 4.8 2.5 2.7 0 4.6-1.3 2-1.2 2.5-3 .5-1.5-.5-2.8-1-1.2-5.7-2.4-7.8-1.8-10.4-5-2.5-3-.9-7.9 1-3.1 3.8-6 2.8-2.8 6.9-4.3Q526.6 0 533 0q8 0 11 3 3.3 2.9 2 9.3l-12.2.7q.4-2.8-.7-4-1.1-1.3-3.8-1.3-2.2 0-3.6 1-1.5.8-2 2.2-.3 1 .5 1.8.6.8 3.7 1.5 7.7 1.8 10.8 3.6 3 1.8 3.7 4.5.7 2.8-.3 6.1-1.3 4-4.6 7.3t-7.6 5q-4.6 1.8-10.6 1.8-10.4 0-13.2-4-2.7-4-1.2-10.3zM554 .7h34l-3 8.8h-21.3l-2 6.5h19.8l-2.7 8.4h-20l-2.6 8h22l-3 9.4h-34.8zm38 0h12l8 22.7L619.4.7h12l-13.3 41h-12l-8-22.4-7.4 22.6h-12zm41.6 0H672l-3.3 10.2h-13l-10 30.9h-12.6l10-31h-13zm29.6 27.5l12.3-.8q-.5 3 .2 4.5 1.2 2.5 4.8 2.5 2.7 0 4.5-1.3 2-1.2 2.5-3 .5-1.5-.5-2.8-1-1.2-5.7-2.4-7.7-1.8-10.3-5-2.5-3-.9-7.9 1-3.1 3.8-6 2.7-2.8 6.9-4.3Q685 0 691.3 0q8 0 11 3 3.3 2.9 2 9.3l-12.2.7q.5-2.8-.7-4-1.1-1.3-3.8-1.3-2.2 0-3.6 1-1.4.8-1.8 2.2-.4 1 .4 1.8.5.8 3.7 1.5Q694 16 697 17.8q3 1.8 3.8 4.5.6 2.8-.4 6.1-1.3 4-4.5 7.3-3.3 3.3-7.7 5-4.6 1.8-10.6 1.8-10.4 0-13.1-4-2.7-4-1.3-10.3zm38.8 2.2h12.2l-3.7 11.4h-12.3zm19.1 0h12.2l-3.7 11.4h-12.2zm19.1 0h12.2l-3.7 11.4h-12.2z"/>
</svg>
