<svg xmlns="http://www.w3.org/2000/svg" viewBox="0 0 900 576">
  <style>
    path{stroke-width:0.5px;stroke-linecap:round}
    .st1{fill:#ff00bd;stroke:#ff00bd}
    .st2{fill:#e7ff00;stroke:#e7ff00}
  </style>
  <path class="st1" d="M529.7 40l-.1 40.7-43.8-25.2.1-40.8z"/>
  <path class="st2" d="M508.7 50.2l-.1 40.7-15.7-9 .1-40.8z"/>
  <path class="st1" d="M503.7 53.1l-.1 40.7-10.7-6.1.2-40.8z"/>
  <path class="st2" d="M526.8 70.5l-.1 40.8c0-6.4-5.3-13-18.1-20.4l.1-40.8c12.7 7.4 18.1 14.1 18.1 20.4z"/>
  <path class="st1" d="M519.7 70.5l-.1 40.8c0-5.5-5.1-11.1-16-17.4l.1-40.8c10.9 6.2 16 11.8 16 17.4zM562.9 75.1l-.1 40.8c-.1-11-10.7-22.1-33.2-35.1l.1-40.8c22.5 13 33.1 24.1 33.2 35.1zM485.9 14.7l-.1 40.8-130.2 75.6.2-40.8z"/>
  <path class="st2" d="M493 41.1l-.1 40.8-91.6 53.2.1-40.7z"/>
  <path class="st1" d="M493.1 46.9l-.2 40.8-81.6 47.4.1-40.7zM526.8 70.5l-.1 40.8c0 8.6-9.8 16.6-24.4 25.1l.1-40.8c14.6-8.5 24.4-16.5 24.4-25.1zM502.4 95.6l-.1 40.7-7 4.1.2-40.8z"/>
  <path class="st1" d="M417.1 103.4l-.1 40.8-15.7-9.1.1-40.7z"/>
  <path class="st2" d="M562.9 75.1l-.1 40.8c.1 11.2-10.5 22.7-33.6 36l.1-40.8c23.1-13.3 33.7-24.8 33.6-36z"/>
  <path class="st1" d="M569.9 75.4l-.1 40.8c0 12.4-11.9 24.9-35.6 38.6l.1-40.8c23.7-13.7 35.6-26.2 35.6-38.6z"/>
  <path class="st2" d="M529.3 111.1l-.1 40.8-6.9 4 .1-40.7zM399.6 115.6l-.2 40.8-43.7-25.3.1-40.8z"/>
  <path class="st1" d="M534.4 114.1l-.1 40.7-7 4 .1-40.7zM394.6 118.5l-.1 40.8-48.9-28.2.1-40.8zM495.5 99.6l-.1 40.8c-25.4 14.8-48.5 21.1-78.4 3.8l.1-40.8c29.9 17.3 52.9 11 78.4-3.8z"/>
  <path class="st1" d="M508.7 50.2c29.9 17.3 19.1 30.6-6.3 45.4l-6.9 4c-25.4 14.8-48.5 21.1-78.4 3.8l-15.7-9.1L493 41.1l15.7 9.1zm-18.3 46.5l6.9-4c14-8.1 20.8-14.4 22.1-20.3 1.3-6.2-3.7-12.3-15.8-19.3l-10.7-6.2-81.6 47.4 10.7 6.2c12.1 7 22.7 9.9 33.4 9.1 10.2-.8 21-4.7 35-12.9"/>
  <path class="st2" d="M522.4 115.2l-.1 40.8c-23 13.4-42.8 19.6-62.1 19.5-18.9 0-38.2-6.1-60.7-19.1l.1-40.8c22.5 13 41.8 19.1 60.7 19.1 19.4.1 39.1-6.1 62.1-19.5z"/>
  <path class="st1" d="M534.7 37.1c47.1 27.2 47 49.5-.3 77l-6.9 4c-47.3 27.5-85.8 27.6-132.9.4l-48.8-28.2L485.9 8.9l48.8 28.2zm-12.3 78.1l6.9-4c23-13.4 33.7-24.8 33.6-36-.1-11-10.7-22.1-33.2-35.1l-43.8-25.3-130.1 75.5 43.8 25.3c22.5 13 41.8 19.1 60.7 19.1 19.4.1 39.1-6.1 62.1-19.5"/>
  <path class="st2" d="M562.9 75.1c.1 11.2-10.5 22.7-33.6 36l-6.9 4c-23 13.4-42.8 19.6-62.1 19.5-18.9 0-38.2-6.1-60.7-19.1l-43.8-25.3 130.1-75.6L529.7 40c22.5 13 33.1 24.1 33.2 35.1zm-67.4 24.5l6.9-4c25.4-14.8 36.2-28.1 6.3-45.4L493 41.1l-91.6 53.2 15.7 9.1c29.9 17.3 52.9 11 78.4-3.8"/>
  <path class="st1" d="M527.4 118.1l-.1 40.8c-47.3 27.5-85.8 27.6-132.9.4l.1-40.8c47.1 27.2 85.6 27.1 132.9-.4zM642.2 104.9l-.1 40.8-29.2-16.9.1-40.7z"/>
  <path class="st1" d="M613 88.1l-.1 40.7-130.1 75.7.1-40.8z"/>
  <path class="st2" d="M597.4 124.1l-.1 40.8-35.8 22.3.1-40.7z"/>
  <path class="st1" d="M718.6 149.1l-.1 40.7-24.8-14.3.1-40.8zM583.4 139l-.2 40.7-16.6 10.4.1-40.7zM639.7 166.2l-.1 40.8-35.9 22.3.1-40.7z"/>
  <path class="st2" d="M642.2 104.9l-.1 40.8-38.4 83.6.1-40.7z"/>
  <path class="st1" d="M618 173.7v6l21.7-13.5v.7l10.3-22.4.1-40.8z"/>
  <path class="st1" d="M693.8 134.7l-.1 40.8-54.1 31.5.1-40.8z"/>
  <path class="st2" d="M507.5 177.9l-.1 40.8-24.6-14.2.1-40.8z"/>
  <path class="st2" d="M561.6 146.5l-.1 40.7-54.1 31.5.1-40.8z"/>
  <path class="st1" d="M566.7 149.4l-.1 40.7-59.2 34.4.1-40.8zM507.5 183.7l-.1 40.8-34.7-20 .2-40.8zM597.4 124.1l-.1 40.8-38.1 83.7.1-40.7z"/>
  <path class="st2" d="M718.6 149.1l-.1 40.7-130.1 75.7.1-40.8z"/>
  <path class="st2" d="M588.5 224.7l-.1 40.8-29.2-16.9.1-40.7z"/>
  <path class="st2" d="M718.6 149.1l-130.1 75.6-29.2-16.8 38.1-83.8-35.8 22.4-54.1 31.4-24.6-14.2L613 88.1l29.2 16.8-38.4 83.7 35.9-22.4 54.1-31.5z"/>
  <path class="st1" d="M693.8 128.9l34.9 20.1-140.1 81.4-37.1-21.4 31.9-70.1-16.7 10.4-59.2 34.4-34.7-20L613 82.3l37.1 21.4-32.1 70 16.6-10.4 59.2-34.4zm-105.3 95.8l130.1-75.6-24.8-14.3-54.1 31.5-35.9 22.4 38.3-83.6-29.1-17-130.1 75.6 24.6 14.2 54.1-31.4 35.8-22.4-38.1 83.7 29.2 16.9M728.7 149.1l-.2 40.7-140.1 81.5.1-40.8z"/>
  <path class="st1" d="M588.5 230.5l-.1 40.8-37.1-21.5.1-40.7zM791.1 190.9l-.1 40.8-47.1-27.2.1-40.8z"/>
  <path class="st2" d="M771.7 202l-.2 40.7-20.5-11.8.1-40.8z"/>
  <path class="st1" d="M766.7 204.9l-.2 40.7-15.5-8.9.2-40.8z"/>
  <path class="st2" d="M697.1 221.5l-.2 40.8-37.5 21.8.1-40.7z"/>
  <path class="st1" d="M737 222.1l-.1 40.8-20.5-11.9.1-40.7z"/>
  <path class="st2" d="M720.3 235l-.1 40.7-23.3-13.4.2-40.8z"/>
  <path class="st1" d="M697.1 227.4l-.1 40.7-27.6 16 .1-40.7z"/>
  <path class="st1" d="M682.7 256.8l-.1 40.8-23.2-13.5.1-40.7z"/>
  <path class="st2" d="M662.5 267.4l-.1 40.8-48.6-28.1.1-40.7z"/>
  <path class="st1" d="M613.9 239.4l-.1 40.7 45.7-26.6v-10.1l37.6-21.9 8.7 5.1 10.7-6.2v-10.1l8.8 5 18.6-10.8.1-40.8z"/>
  <path class="st2" d="M716.5 210.3l-.1 22.4.1-22.4 20.5 11.8V239l14-8.1.1-40.8z"/>
  <path class="st1" d="M726.5 210.3v5.7l10.5 6.1v22.8l14-8.2.2-40.8z"/>
  <path class="st2" d="M782.1 213.9l-.1 40.8c0-3.8-3.5-7.9-10.4-11.9l.1-40.8c6.9 4 10.4 8 10.4 11.9z"/>
  <path class="st1" d="M775 213.9l-.1 40.8c0-2.3-2-5.3-8.3-9l.1-40.8c6.3 3.6 8.3 6.6 8.3 9zM817.8 219.1l-.1 40.8c0-8.6-8.8-17.9-26.7-28.2l.1-40.8c17.9 10.3 26.7 19.6 26.7 28.2zM782.1 213.9l-.1 40.8c0 3.1-2.3 6.1-7 8.8l.1-40.8c4.6-2.7 7-5.7 7-8.8z"/>
  <path class="st1" d="M775 222.7l-.1 40.7-2.2 1.4.1-40.8z"/>
  <path class="st1" d="M772.8 224l-.1 40.8c-10.4 6.1-23.1 5.4-35.8-1.9l.1-40.8c12.6 7.3 25.3 8 35.8 1.9z"/>
  <path class="st2" d="M817.7 259.9c0 6.6-5.2 12.8-15.5 18.7l.1-40.8c10.3-6 15.5-12.2 15.5-18.7l-.1 40.8z"/>
  <path class="st1" d="M715.3 237.9l-.1 40.7-18.2-10.5.1-40.7z"/>
  <path class="st2" d="M728.7 282.6a30 30 0 00-8.5-6.9l.1-40.8c3.9 2.3 6.8 4.6 8.5 6.9l-.1 40.8zM763.3 245l-.2 40.8-7.1-1.3.2-40.8z"/>
  <path class="st1" d="M723.9 247.4l-.1 40.8c0-3-2.9-6.2-8.6-9.5l.1-40.8c5.7 3.3 8.6 6.5 8.6 9.5z"/>
  <path class="st2" d="M728.7 282.6c-.2-.5 0-1.3 0-1.8V267.2l.1-25.4a9.7 9.7 0 012.2 5.6l-.1 40.8c0-1.8-.8-3.7-2.2-5.6z"/>
  <path class="st1" d="M758.9 247.7l-.1 40.8-2.8-4 .2-40.8zM762.4 257.4l-.1 40.8c0-3-1.2-6.2-3.5-9.6l.1-40.8a17 17 0 013.5 9.6zM731 247.4l-.1 40.8c0 3.5-2.6 6.9-7.9 9.9l.1-40.8c5.3-3 7.9-6.4 7.9-9.9z"/>
  <path class="st1" d="M723.1 257.4l-.1 40.7-1.6.9.2-40.7z"/>
  <path class="st1" d="M721.6 258.3l-.1 40.8c-11.5 6.7-25.7 6.1-38.8-1.5l.1-40.8a38.2 38.2 0 0038.8 1.5z"/>
  <path class="st2" d="M757.3 308.2l.1-40.8c3.3-3.1 4.9-6.5 4.9-10.1l-.1 40.8c.1 3.6-1.6 6.9-4.9 10.1z"/>
  <path class="st2" d="M757.3 308.2c-1.8 1.7-4 3.3-6.7 4.9l.1-40.8c2.7-1.6 4.9-3.2 6.7-4.9l-.1 40.8zM671.9 313.3l.1-40.8c28.8 14.2 52.9 14.7 75.2 1.8l-.1 40.8c-22.3 13-46.4 12.4-75.2-1.8z"/>
  <path class="st2" d="M758.9 247.7c6.5 9.5 3.9 17.6-8.2 24.5l-3.5 2c-24.8 14.4-51.7 12.2-84.8-6.9l-48.6-28.1L744 163.7l47.1 27.2c31.5 18.2 35 33.1 11.2 46.9l-3.5 2a50 50 0 01-35.6 5.2l-7.1-1.3 2.8 4zm-37.3 10.6l1.6-.9c11.4-6.6 10.4-14.8-2.8-22.4l-23.2-13.4-37.6 21.8 23.2 13.4a38.2 38.2 0 0038.8 1.5m29.5-68.2l-34.6 20.1 20.5 11.9c12.6 7.3 25.3 8 35.8 1.9l2.3-1.3c10.4-6.1 9.2-13.4-3.4-20.7l-20.6-11.9"/>
  <path class="st2" d="M802.3 237.8l-.1 40.8-3.5 2 .1-40.8z"/>
  <path class="st1" d="M825 219l-.1 40.8c0 7.6-5.9 14.9-17.6 21.7l.1-40.8c11.7-6.8 17.6-14 17.6-21.7z"/>
  <path class="st2" d="M798.8 239.8l-.1 40.8a50 50 0 01-35.6 5.2l.1-40.8a50 50 0 0035.6-5.2z"/>
  <path class="st1" d="M803.9 242.8l-.1 40.8a58.6 58.6 0 01-36.2 7.1l.1-40.8c13.5 1.4 25.6-1 36.2-7.1zM720.3 235c13.2 7.6 14.2 15.8 2.8 22.4l-1.6.9c-11.5 6.7-25.7 6.1-38.8-1.5l-23.2-13.4 37.6-21.8 23.2 13.4zm-3.8 20.4l1.6-.9c8.6-5 7.6-10.6-2.8-16.6l-18.2-10.5-27.6 16 18.2 10.5c7.2 4.1 18 7.7 28.8 1.5"/>
  <path class="st2" d="M671.9 313.3a127 127 0 01-9.5-5.1l.1-40.8a127 127 0 009.5 5.1l-.1 40.8zM750.7 272.3l-.1 40.8-3.4 2 .1-40.8z"/>
  <path class="st1" d="M767.6 249.9c4.6 9.6.6 18.1-11.9 25.3l-3.5 2a76.8 76.8 0 01-51.5 9.6 126.2 126.2 0 01-43.3-16.4l-53.7-31L744 157.9l52.1 30.1c15 8.6 23.9 16.5 27.3 24.1 4.6 10.2-.8 19.8-16.1 28.7l-3.5 2a58.4 58.4 0 01-36.2 7.1zm-20.3 24.4l3.5-2c12-7 14.7-15 8.2-24.5l-2.8-4 7.1 1.3a50 50 0 0035.6-5.2l3.5-2c23.8-13.8 20.3-28.8-11.2-46.9L744 163.7l-130.1 75.6 48.6 28.1c33.1 19.1 60 21.3 84.8 6.9"/>
  <path class="st1" d="M772.8 224c-10.4 6.1-23.1 5.4-35.8-1.9l-20.5-11.9 34.6-20.1 20.5 11.9c12.6 7.3 13.8 14.6 3.4 20.7l-2.2 1.3zm-21.6-28.1l-24.6 14.3 15.5 9c14.5 8.4 23 3.5 25.7 1.9l2.3-1.3c2.8-1.6 11.2-6.5-3.3-14.9l-15.6-9M807.3 240.7l-.1 40.8-3.4 2 .1-40.7zM657.5 270.3l-.1 40.8-53.7-31 .1-40.7zM769.5 257.4l-.1 40.8c0 6.6-4.6 12.5-13.7 17.8l.1-40.8c9.1-5.3 13.7-11.3 13.7-17.8z"/>
  <path class="st1" d="M755.8 275.2l-.1 40.8-3.5 2 .1-40.8z"/>
  <path class="st1" d="M752.3 277.2l-.1 40.8a76.8 76.8 0 01-51.5 9.6 126.2 126.2 0 01-43.3-16.4l.1-40.8c15.5 9 29.7 14.3 43.3 16.4a76.8 76.8 0 0051.5-9.6zM354.9 145.4l-.1 40.8-47.1-27.2.1-40.8z"/>
  <path class="st2" d="M335.4 156.5l-.1 40.7-20.5-11.8.1-40.8z"/>
  <path class="st1" d="M330.4 159.4l-.1 40.7-15.5-8.9.1-40.8z"/>
  <path class="st2" d="M260.8 176l-.1 40.8-37.5 21.8.1-40.7z"/>
  <path class="st1" d="M300.8 176.6l-.1 40.8-20.5-11.9.1-40.8z"/>
  <path class="st2" d="M284.1 189.5l-.1 40.7-23.3-13.4.1-40.8z"/>
  <path class="st1" d="M260.9 181.8l-.1 40.8-27.6 16 .1-40.7z"/>
  <path class="st1" d="M246.5 211.3l-.1 40.8-23.2-13.5.1-40.7z"/>
  <path class="st2" d="M226.3 221.9l-.1 40.8-48.7-28.1.1-40.8z"/>
  <path class="st1" d="M177.6 193.8l-.1 40.8 45.7-26.6.1-10.1 37.5-21.9 8.8 5.1 10.6-6.2.1-10.2 8.7 5.1 18.7-10.8.1-40.8z"/>
  <path class="st2" d="M280.3 164.7l-.1 22.5.1-22.5 20.5 11.9v16.9l14-8.1.1-40.8z"/>
  <path class="st1" d="M290.3 164.7v5.8l10.5 6.1-.1 22.8 14.1-8.2.1-40.8z"/>
  <path class="st2" d="M345 206.1c-1.3-2.9-4.6-5.9-9.7-8.8l.1-40.8c5.1 3 8.4 5.9 9.7 8.8l-.1 40.8z"/>
  <path class="st2" d="M345 206.1v-10.3l.1-30.5c.5 1 .7 2 .7 3l-.1 40.8c0-1-.2-2-.7-3z"/>
  <path class="st1" d="M338.7 168.4l-.1 40.8c0-2.3-2-5.3-8.3-9l.1-40.8c6.4 3.6 8.3 6.6 8.3 9zM381.6 173.6l-.1 40.8c0-8.6-8.8-17.9-26.7-28.2l.1-40.8c17.8 10.3 26.7 19.6 26.7 28.2zM345.8 168.4l-.1 40.8c0 3.1-2.3 6.1-7 8.8l.1-40.8c4.7-2.7 7-5.7 7-8.8z"/>
  <path class="st1" d="M338.8 177.2l-.1 40.7-2.3 1.4.2-40.8z"/>
  <path class="st1" d="M336.6 178.5l-.1 40.8c-10.4 6.1-23.1 5.4-35.8-1.9l.1-40.8c12.6 7.3 25.3 8 35.8 1.9z"/>
  <path class="st2" d="M381.5 214.3c0 6.6-5.2 12.8-15.5 18.7l.1-40.8c10.3-6 15.5-12.2 15.5-18.7l-.1 40.8z"/>
  <path class="st1" d="M279.1 192.4l-.1 40.7-18.2-10.5.1-40.8z"/>
  <path class="st2" d="M366.1 192.3l-.1 40.8-3.5 2 .1-40.8z"/>
  <path class="st1" d="M388.7 173.5l-.1 40.8c0 7.6-5.9 14.9-17.6 21.7l.1-40.8c11.7-6.8 17.6-14.1 17.6-21.7z"/>
  <path class="st2" d="M349.3 240.3l.1-26.5v-14.3c4.7-1 9-2.7 13.2-5.2l-.1 40.8a49.7 49.7 0 01-13.2 5.2zM327 199.5l-.1 40.8-7.1-1.3.1-40.8z"/>
  <path class="st2" d="M349.3 240.3a56.2 56.2 0 01-22.4 0l.1-40.8a56.2 56.2 0 0022.4 0v12.6l-.1 28.2zM294.8 201.9l-.1 40.8c0-4.1-3.6-8.4-10.7-12.5l.1-40.8c7.1 4.2 10.7 8.4 10.7 12.5z"/>
  <path class="st1" d="M287.7 201.9l-.1 40.8c0-3-2.9-6.2-8.6-9.5l.1-40.8c5.7 3.3 8.6 6.4 8.6 9.5zM322.7 202.2l-.1 40.8-2.8-4 .1-40.8zM367.6 197.2l-.1 40.8a58.6 58.6 0 01-36.2 7.1l.1-40.8a57.8 57.8 0 0036.2-7.1zM326.2 211.8l-.1 40.8c0-3-1.2-6.2-3.5-9.6l.1-40.8c2.3 3.4 3.5 6.6 3.5 9.6z"/>
  <path class="st1" d="M294.8 201.9l-.1 40.8c0 3.5-2.6 6.9-7.9 9.9l.1-40.8c5.2-3 7.8-6.4 7.9-9.9zM286.9 211.8l-.1 40.8-1.6.9.1-40.7z"/>
  <path class="st1" d="M285.3 212.8l-.1 40.8c-11.5 6.7-25.6 6.2-38.8-1.5l.1-40.8a38.2 38.2 0 0038.8 1.5z"/>
  <path class="st2" d="M326 252.6c0 5.5-3.9 10.4-11.6 14.9l.1-40.8c7.8-4.5 11.6-9.5 11.6-14.9l-.1 40.8zM264.4 277.7a118.7 118.7 0 01-38.2-15l.1-40.8a119.6 119.6 0 0038.2 15l-.1 40.8z"/>
  <path class="st2" d="M264.4 277.7l.1-40.8c16.8 3 32 .3 46.5-8.2l-.1 40.8a65.6 65.6 0 01-46.5 8.2z"/>
  <path class="st1" d="M331.4 204.4c4.6 9.6.6 18.1-11.9 25.3l-3.5 2a76.8 76.8 0 01-51.5 9.6 126.2 126.2 0 01-43.3-16.4l-53.7-31 140.1-81.4 52.1 30.1c15 8.6 23.9 16.5 27.3 24.1 4.6 10.2-.8 19.8-16.1 28.7l-3.5 2a58.9 58.9 0 01-36 7zM311 228.8l3.5-2c12-7 14.7-15 8.2-24.5l-2.8-4 7.1 1.3a50 50 0 0035.6-5.2l3.5-2c23.8-13.8 20.3-28.8-11.2-46.9l-47.1-27.2-130.1 75.6 48.6 28.1c33 19 60 21.2 84.7 6.8"/>
  <path class="st1" d="M336.6 178.5c-10.4 6.1-23.1 5.4-35.8-1.9l-20.5-11.9 34.6-20.1 20.5 11.9c12.6 7.3 13.8 14.6 3.4 20.7l-2.2 1.3zm-21.7-28.1l-24.6 14.3 15.5 9c14.5 8.4 23 3.5 25.7 1.9l2.3-1.3c2.8-1.6 11.2-6.5-3.4-14.9l-15.5-9M371.1 195.2L371 236l-3.5 2 .1-40.8zM284.1 189.5c13.2 7.6 14.2 15.8 2.8 22.4l-1.6.9c-11.5 6.7-25.6 6.2-38.8-1.5l-23.2-13.4 37.6-21.8 23.2 13.4zm-3.8 20.4l1.6-.9c8.6-5 7.6-10.6-2.8-16.6l-18.2-10.5-27.6 16 18.2 10.5c7.2 4.1 18 7.7 28.8 1.5M221.3 224.8l-.1 40.8-53.7-31 .1-40.7z"/>
  <path class="st2" d="M314.5 226.8l-.1 40.7-3.5 2.1.1-40.8z"/>
  <path class="st1" d="M333.2 211.9l-.1 40.8c0 6.6-4.6 12.5-13.7 17.8l.1-40.8c9.1-5.3 13.7-11.3 13.7-17.8zM319.5 229.7l-.1 40.7-3.4 2.1.1-40.8z"/>
  <path class="st2" d="M322.7 202.2c6.5 9.5 3.9 17.6-8.2 24.5l-3.5 2c-24.8 14.4-51.7 12.2-84.8-6.9l-48.6-28.1 130.1-75.6 47.1 27.2c31.5 18.2 35 33.1 11.2 46.9l-3.5 2a50 50 0 01-35.6 5.2l-7.1-1.3 2.9 4.1zm-37.4 10.6l1.6-.9c11.4-6.6 10.4-14.8-2.8-22.4L260.8 176l-37.6 21.8 23.2 13.4c13.3 7.7 27.4 8.2 38.9 1.6m29.6-68.2l-34.6 20.1 20.5 11.9c12.6 7.3 25.3 8 35.8 1.9l2.3-1.3c10.4-6.1 9.2-13.4-3.4-20.7l-20.6-11.9"/>
  <path class="st1" d="M316.1 231.7l-.1 40.8a76.8 76.8 0 01-51.5 9.6 126.2 126.2 0 01-43.3-16.4l.1-40.8c15.5 9 29.7 14.3 43.3 16.4a76.8 76.8 0 0051.5-9.6zM475.8 215.2l-.1 40.8-47.1-27.2.1-40.8z"/>
  <path class="st2" d="M457.9 227.2l-.1 40.7-22.1-12.7.1-40.8z"/>
  <path class="st1" d="M452.9 230.1l-.1 40.7-17.1-9.8.1-40.8z"/>
  <path class="st2" d="M468.7 280.4c-.2-4.2-3.8-8.4-10.9-12.5l.1-40.8c7.1 4.1 10.7 8.3 10.9 12.5l-.1 40.8z"/>
  <path class="st1" d="M428.7 188l-.1 40.8-130.2 75.6.2-40.7z"/>
  <path class="st2" d="M435.8 214.4l-.1 40.8-43.1 25 .1-40.7z"/>
  <path class="st1" d="M435.8 220.2l-.1 40.8-33.1 19.3.1-40.8zM461.7 240l-.1 40.8c0-3.2-2.9-6.5-8.8-9.9l.1-40.8c5.9 3.4 8.8 6.7 8.8 9.9z"/>
  <path class="st2" d="M468.7 280.8v-.4l.1-40.8v.4l-.1 40.8z"/>
  <path class="st1" d="M504.5 245.5l-.1 40.8c0-2.1-.5-4.3-1.5-6.5-3.3-7.4-12.2-15.1-27.2-23.8l.1-40.8c15 8.7 23.9 16.5 27.2 23.8 1 2.2 1.5 4.4 1.5 6.5zM468.8 240.1l-.1 40.8c0 4-3.2 8-9.7 11.8l.1-40.8c6.5-3.8 9.7-7.8 9.7-11.8zM414.8 252.2l-.1 40.8-22.1-12.8.1-40.7z"/>
  <path class="st1" d="M459.1 251.9l-.1 40.7-1.8 1 .2-40.7z"/>
  <path class="st1" d="M457.9 227.2c14.1 8.2 14.5 16.9 1.2 24.7l-1.7 1a41 41 0 01-42.6-.6l-22.1-12.8 43.1-25.1 22.1 12.8zm-5.6 22.8l1.7-1c10.6-6.1 10.2-12.3-1.2-18.9l-17.1-9.8-33.1 19.2 17.1 9.8c11.4 6.6 22.1 6.8 32.6.7"/>
  <path class="st1" d="M457.4 252.9l-.1 40.8a41 41 0 01-42.6-.6l.1-40.8a41.3 41.3 0 0042.6.6z"/>
  <path class="st2" d="M393.7 262.4l-.1 40.7-20.3-11.7.1-40.7z"/>
  <path class="st1" d="M385.4 263.4l-.1 40.7-11.9-6.9.1-40.7z"/>
  <path class="st2" d="M504.4 286.3c0 7.3-5.9 14.3-17.8 21.2l.1-40.8c11.9-6.9 17.8-13.9 17.8-21.2l-.1 40.8z"/>
  <path class="st2" d="M486.7 266.8l-.1 40.8-3.5 2 .1-40.8z"/>
  <path class="st1" d="M511.6 245.5l-.1 40.8c0 8.4-6.7 16.5-19.8 24.2l.1-40.8c13.1-7.6 19.7-15.8 19.8-24.2zM491.7 269.7l-.1 40.8-3.4 2 .1-40.8z"/>
  <path class="st2" d="M425.8 276.5l-.1 40.7-3.5-.9.1-40.7z"/>
  <path class="st2" d="M440.7 319.8c-4.9-.4-9.9-1.2-15.1-2.6l.1-40.8a81 81 0 0015.1 2.6l-.1 40.8zM324.9 278.9l-.1 40.7-26.4-15.2.2-40.7z"/>
  <path class="st2" d="M373.4 250.7l-.1 40.7-48.5 28.2.1-40.7zM483.1 309.6a71.9 71.9 0 01-42.4 10.2l.1-40.8a71.9 71.9 0 0042.4-10.2l-.1 40.8z"/>
  <path class="st1" d="M373.5 256.5l-.1 40.7-48.6 28.2.2-40.7z"/>
  <path class="st1" d="M325 284.7l-.2 40.7-36.4-21 .1-40.7zM488.3 271.7l-.1 40.8a83.1 83.1 0 01-61.9 9.4l.1-40.8a83.2 83.2 0 0061.9-9.4z"/>
  <path class="st2" d="M394.3 318.9l-.1 40.8-28.4-16.4.1-40.8z"/>
  <path class="st1" d="M393.7 262.4l-.1 40.7-27.8 40.2.1-40.8z"/>
  <path class="st2" d="M422.3 275.6l-.1 40.7-28 43.4.1-40.8z"/>
  <path class="st2" d="M483.2 268.8a72.4 72.4 0 01-57.5 7.7l-3.4-.9-28.1 43.3-28.4-16.4 27.8-40.2-20.3-11.7-48.5 28.2-26.4-15.2L428.7 188l47.1 27.2c15 8.7 23.9 16.5 27.2 23.8 4.4 9.8-1 18.9-16.3 27.8l-3.5 2zm-25.8-15.9l1.7-1c13.3-7.8 12.9-16.5-1.2-24.7l-22.1-12.8-43.1 25.1 22.1 12.8a41.3 41.3 0 0042.6.6"/>
  <path class="st1" d="M397.1 326.3l-.2 40.8-39.4-22.8.1-40.8z"/>
  <path class="st1" d="M426.4 281.1l-.2 40.7-29.3 45.3.2-40.8z"/>
  <path class="st1" d="M426.4 281.1l-29.3 45.2-39.5-22.8 27.8-40.2-11.9-6.9-48.5 28.3-36.4-21 140.1-81.4 52.1 30.1c15.9 9.2 25.4 17.6 29.1 25.7 5 11.1-1.1 21.8-18.1 31.7l-3.5 2a83.6 83.6 0 01-61.9 9.3zm-32.7-18.7l-27.8 40.2 28.4 16.4 28.1-43.3 3.4.9a72.4 72.4 0 0057.5-7.7l3.5-2c15.3-8.9 20.7-18 16.3-27.8-3.3-7.4-12.2-15.1-27.2-23.8L428.7 188l-130.1 75.6 26.4 15.2 48.5-28.2 20.2 11.8M635.5 307.4l-.1 40.8-87.4-50.5.1-40.8z"/>
  <path class="st1" d="M548.1 256.9l-.1 40.8-130.2 75.6.1-40.7z"/>
  <path class="st2" d="M555.2 283.4l-.1 40.7-34.8 20.2.1-40.7zM616.2 318.6l-.1 40.8-61-35.3.1-40.7z"/>
  <path class="st1" d="M555.2 289.2l-.1 40.7-24.8 14.4.1-40.7z"/>
  <path class="st2" d="M635.5 307.4l-.1 40.8-19.3 11.2.1-40.8z"/>
  <path class="st1" d="M645.5 307.4l-.1 40.8-29.3 17 .1-40.8z"/>
  <path class="st1" d="M616.2 324.4l-.1 40.8-61-35.3.1-40.7z"/>
  <path class="st1" d="M571.7 333.2l-.1 40.8-51.3-29.7.1-40.7z"/>
  <path class="st2" d="M501.1 314.8l-.1 40.7-37.6 21.9.1-40.8z"/>
  <path class="st2" d="M552.5 344.4l-.2 40.8-51.3-29.7.1-40.7z"/>
  <path class="st1" d="M501.1 320.6l-.1 40.7-27.5 16.1.1-40.8z"/>
  <path class="st2" d="M571.7 333.2l-.1 40.8-19.3 11.2.2-40.8z"/>
  <path class="st1" d="M552.5 350.2l-.1 40.8-51.4-29.7.1-40.7z"/>
  <path class="st1" d="M581.7 333.2l-.1 40.8-29.2 17 .1-40.8zM524.6 371.8l-.1 40.8-61.1-35.2.1-40.8z"/>
  <path class="st2" d="M524.6 371.8l-.1 40.8-19.3 11.2.1-40.8z"/>
  <path class="st2" d="M505.3 383l-.1 40.8-87.4-50.5.1-40.7zM635.5 307.4l-19.3 11.2-61-35.2-34.8 20.2 51.3 29.6-19.2 11.2-51.4-29.6-37.6 21.8 61.1 35.2-19.3 11.2-87.4-50.4 130.2-75.7z"/>
  <path class="st1" d="M616.2 324.4l-61-35.2-24.8 14.4 51.4 29.6-29.2 17-51.4-29.6-27.6 16 61 35.2-29.3 17-97.5-56.3L548 251.1l97.5 56.3-29.3 17zm-44.5 8.8l-51.3-29.6 34.8-20.2 61 35.2 19.3-11.2-87.4-50.5L418 332.5l87.4 50.5 19.3-11.2-61-35.2 37.6-21.8 51.3 29.6 19.1-11.2M534.6 371.8l-.1 40.8-29.3 17 .1-40.8z"/>
  <path class="st1" d="M505.3 388.8l-.1 40.8-97.4-56.3.1-40.7zM726.5 359.6l-.1 40.7-39.4-22.7.1-40.8z"/>
  <path class="st1" d="M687.1 336.8l-.1 40.8-166.9 54.8.1-40.8z"/>
  <path class="st2" d="M687.2 359.5l-.1 40.7-78.2 27.4.1-40.7z"/>
  <path class="st1" d="M666.4 371.6l-.1 40.7-46 16.1.1-40.7z"/>
  <path class="st1" d="M609 386.9l78.2-27.4-47 45.4-31.2-18zm11.4.8l18.4 10.6 27.7-26.7-46.1 16.1"/>
  <path class="st1" d="M687.2 359.5l-.1 40.7-47 45.4.1-40.7z"/>
  <path class="st1" d="M640.2 404.9l-.1 40.7-31.2-18 .1-40.7z"/>
  <path class="st2" d="M548.7 408.1l-.1 40.7-28.5-16.4.1-40.8z"/>
  <path class="st2" d="M585 395.3l-.1 40.8-36.3 12.7.1-40.7z"/>
  <path class="st1" d="M547.6 413.3l-.1 40.7-39-22.5.1-40.8z"/>
  <path class="st1" d="M583.9 400.5l-.1 40.7-36.3 12.8.1-40.7z"/>
  <path class="st2" d="M625.9 418.9l-.1 40.8-40.9-23.6.1-40.8z"/>
  <path class="st1" d="M617 419.6l-.1 40.7-33.1-19.1.1-40.7z"/>
  <path class="st1" d="M625.9 418.9l-.1 40.8-21.8 21.2.2-40.8z"/>
  <path class="st2" d="M726.5 359.6l-.1 40.7-94.1 96.9.1-40.8zM632.4 456.4l-.1 40.8-28.3-16.3.2-40.8z"/>
  <path class="st2" d="M726.5 359.6l-94.1 96.8-28.3-16.3 21.7-21.2-40.8-23.6-36.3 12.8-28.4-16.4 166.9-54.8 39.3 22.7zM609 386.9l31.2 18 47-45.4-78.2 27.4"/>
  <path class="st1" d="M735.3 358.9L634 463.1l-38.8-22.4 21.7-21.2-33.1-19.1-36.3 12.8-39-22.5 179.7-59 47.1 27.2zm-109.4 60l-21.7 21.2 28.3 16.3 94.1-96.8-39.4-22.7-166.9 54.8 28.4 16.4 36.3-12.8 40.9 23.6"/>
  <path class="st1" d="M735.3 358.9l-.1 40.7-101.3 104.3.1-40.8z"/>
  <path class="st1" d="M634 463.1l-.1 40.8-38.8-22.4.1-40.8zM807 406.4l-.2 40.8-26.3-15.3.1-40.7z"/>
  <path class="st1" d="M780.6 391.2l-.1 40.7-130.2 75.7.1-40.8z"/>
  <path class="st2" d="M807 406.4l-.2 40.8-58.4 33.9.1-40.7z"/>
  <path class="st1" d="M817 406.4l-.1 40.8-47.6 27.6.1-40.7z"/>
  <path class="st1" d="M848 430.1l-.1 40.8-99.5 10.2.1-40.7z"/>
  <path class="st1" d="M879.5 448.3l-.1 40.8-31.5-18.2.1-40.8z"/>
  <path class="st2" d="M879.5 448.3l-.1 40.8-91.7 6.6.1-40.7z"/>
  <path class="st1" d="M894.8 451.3l-.1 40.8-101.6 7.4.1-40.8z"/>
  <path class="st2" d="M750 457.8l-.1 40.7-35.9 2.6.2-40.8z"/>
  <path class="st1" d="M739.7 462.6l-.1 40.8-22.2 1.6.1-40.8z"/>
  <path class="st2" d="M676.8 482l-.1 40.8-26.4-15.2.1-40.8zM714.2 460.3l-.2 40.8-37.3 21.7.1-40.8z"/>
  <path class="st1" d="M717.5 464.2l-.1 40.8-40.7 23.6.1-40.7zM676.8 487.9l-.1 40.7-36.4-21 .1-40.8zM750 457.8l-.1 40.7-28.8 49.9.1-40.7z"/>
  <path class="st2" d="M787.8 455l-.1 40.7-37.5 69.6.2-40.8z"/>
  <path class="st2" d="M750.4 524.5l-.2 40.8-29.1-16.9.1-40.7z"/>
  <path class="st1" d="M894.8 451.3l-101.6 7.4-39.5 73.5-40.6-23.4 26.7-46.1-22.3 1.6-40.6 23.6-36.4-21 140.1-81.4 36.4 21-47.6 27.6 80.9-8.4 44.5 25.6zm-144.4 73.2l37.4-69.5 91.7-6.7-31.5-18.2-99.5 10.3 58.5-34-26.4-15.2-130.1 75.6 26.4 15.2 37.3-21.7 35.9-2.6-28.8 49.9 29.1 16.9"/>
  <path class="st2" d="M879.5 448.3l-91.7 6.7-37.4 69.5-29.2-16.8 28.8-49.9-35.8 2.5-37.4 21.7-26.4-15.2 130.2-75.6 26.4 15.2-58.5 34 99.5-10.3z"/>
  <path class="st1" d="M793.2 458.7l-.1 40.8-39.6 73.5.2-40.8z"/>
  <path class="st1" d="M753.7 532.2l-.2 40.8-40.5-23.5.1-40.7zM217.4 269.8l-.1 40.8c-33.5-18.9-62.1-26.6-92.6-25a177.5 177.5 0 00-81.5 23.3l.1-40.8a176.3 176.3 0 0181.5-23.3c30.4-1.7 59.1 6.1 92.6 25zM43.3 268.1l-.1 40.8-2.3 1.3.1-40.8z"/>
  <path class="st2" d="M103.7 268.2l-.1 40.7-8.7 2.5.2-40.8zM197.8 281.2l-.1 40.8a121.4 121.4 0 00-65-17.6 119 119 0 00-29 4.6l.1-40.8a119 119 0 0129-4.6c21.9-.7 42 4.8 65 17.6z"/>
  <path class="st1" d="M104.5 272l-.1 40.8-9.5-1.4.2-40.8z"/>
  <path class="st2" d="M217.4 269.8l-.1 40.7-19.7 11.4.2-40.7zM72 282l-.1 40.7-1 .2.1-40.8z"/>
  <path class="st1" d="M195.3 285.5l-.1 40.8c-22.4-13-41.6-18.4-62.2-17.8-5.8.2-11.7.8-17.7 2.1l.1-40.8c6-1.2 11.9-1.9 17.7-2.1 20.6-.6 39.8 4.9 62.2 17.8z"/>
  <path class="st2" d="M71 282.1l-.1 40.8-6.3 3.6.2-40.8z"/>
  <path class="st1" d="M227.4 269.8l-.1 40.7-29.6 17.2.1-40.7z"/>
  <path class="st1" d="M197.8 287l-.1 40.7-2.5-1.4.1-40.8zM151.3 304.4l-.1 40.8c0-8-6.1-15.9-18.3-23a79.1 79.1 0 00-28.6-9.5l.1-40.8a79.1 79.1 0 0128.6 9.5c12.3 7.1 18.4 15.1 18.3 23z"/>
  <path class="st2" d="M105.7 328.9a55 55 0 00-33.9-6.1L72 282c11.5-1.6 24.5.7 33.9 6.1l-.2 40.8z"/>
  <path class="st2" d="M106.8 288.7l-.1 40.7-1-.5.2-40.8z"/>
  <path class="st1" d="M74.6 285.8l-.1 40.8-4.8 2.8.1-40.8zM100.9 291l-.1 40.8a44.5 44.5 0 00-26.3-5.2l.1-40.8c8.9-1 18.9 1 26.3 5.2z"/>
  <path class="st1" d="M101.8 291.6l-.1 40.7-.9-.5.1-40.8zM19.1 337.2l.1-40.8c0-9.3 7.3-18.6 21.8-27l-.1 40.8c-14.5 8.4-21.7 17.7-21.8 27z"/>
  <path class="st2" d="M116.7 341.5c0-4.1-3.3-8.2-10-12.1l.1-40.8c6.7 3.9 10 8 10 12.1l-.1 40.8z"/>
  <path class="st1" d="M109.7 300.8l-.1 40.8c0-3.7-3.7-6.8-7.8-9.2l.1-40.8c4.1 2.3 7.8 5.5 7.8 9.2z"/>
  <path class="st2" d="M64.6 326.5C55.7 331.7 52 337 52 341.9l.1-40.8c0-4.8 3.7-10.2 12.6-15.4l-.1 40.8z"/>
  <path class="st1" d="M59.1 342l.1-40.8c0-4.1 3.6-8.6 10.5-12.6l-.1 40.8c-6.9 4-10.5 8.5-10.5 12.6z"/>
  <path class="st2" d="M20.7 344.8c-1-2.5-1.6-5-1.6-7.5l.1-40.8c0 2.5.5 5 1.6 7.5l-.1 40.8zM151.2 346.5l.1-40.8.1-1.3-.1 40.8-.1 1.3z"/>
  <path class="st1" d="M116.9 300.8l-.1 40.8c0 4-3.2 7.9-9.5 11.6l.1-40.8c6.3-3.7 9.4-7.7 9.5-11.6zM52.1 341.9l.1-40.8c0 4.7 3.4 8.9 8.7 12l-.1 40.8c-5.3-3.1-8.8-7.3-8.7-12z"/>
  <path class="st1" d="M62.1 313.8l-.1 40.7-1.2-.6.1-40.8zM107.4 312.3l-.1 40.8-3.3 1.9.1-40.7z"/>
  <path class="st1" d="M104.1 314.3L104 355a43.8 43.8 0 01-42-.5l.1-40.8a43.6 43.6 0 0042 .6z"/>
  <path class="st2" d="M42.1 365.4c-11.3-6.5-18.5-13.5-21.4-20.6l.1-40.8c3 7.1 10.1 14.1 21.4 20.6 31 17.9 62.5 19.4 88.7 4.1l-.1 40.8c-26.2 15.2-57.7 13.8-88.7-4.1z"/>
  <path class="st2" d="M133.1 281.5c24.5 14.1 24.4 31.9-.4 46.3l-1.7 1c-26.2 15.2-57.7 13.8-88.7-4.1-30.3-17.5-30.7-38.2-1.3-55.3l2.3-1.3a176.3 176.3 0 0181.5-23.3c30.4-1.6 59.1 6.1 92.6 25l-19.6 11.4a121.4 121.4 0 00-65-17.6 119 119 0 00-29 4.6l-8.7 2.5 9.4 1.4a77.8 77.8 0 0128.6 9.4zm-29 32.8l3.3-1.9c12.8-7.4 12.6-16.1-.6-23.7l-1-.6a55 55 0 00-33.9-6.1l-1 .1-6.2 3.6c-17.6 10.3-14.6 21.1-3.8 27.4l1.2.7a43.8 43.8 0 0042 .5"/>
  <path class="st1" d="M106.8 288.7c13.2 7.6 13.4 16.2.6 23.7l-3.3 1.9a43.8 43.8 0 01-42-.5l-1.2-.7c-10.8-6.2-13.8-17.1 3.8-27.4l6.2-3.6 1-.1c11.5-1.6 24.5.7 33.9 6.1l1 .6zm-7.7 22.7l3.3-1.9c12.5-7.3 6.6-13.8-.5-17.9l-1-.6a44.5 44.5 0 00-26.3-5.2l-4.8 2.8c-12.5 7.3-14 15.7-3.9 21.6l1.2.7a32.7 32.7 0 0032 .5"/>
  <path class="st2" d="M151.2 346.5c-.7 7.6-6.9 15.2-18.6 22l.1-40.8c11.7-6.8 17.9-14.4 18.6-22l-.1 40.8z"/>
  <path class="st2" d="M132.7 327.8l-.1 40.7-1.8 1 .1-40.7z"/>
  <path class="st1" d="M158.4 304.5l-.1 40.8c0 9.1-6.9 18.2-20.7 26.2l.1-40.8c13.7-8 20.6-17.2 20.7-26.2zM137.7 330.7l-.1 40.7-1.8 1 .2-40.7z"/>
  <path class="st1" d="M136 331.7l-.1 40.8c-29 16.9-65 15.3-98.7-4.1-16.6-9.6-25.3-20.4-25.2-31.2l.1-40.8c-.1 10.8 8.6 21.6 25.1 31.1 33.8 19.5 69.8 21 98.8 4.2z"/>
  <path class="st1" d="M138.1 278.6c27.2 15.7 27 36.1-.4 52.1l-1.7 1c-29 16.9-65 15.3-98.7-4.1-16.5-9.5-25.2-20.3-25.1-31.1.1-10.5 8.3-20.9 23.9-29.9l2.3-1.3a185.8 185.8 0 0185.9-24.5c33.5-1.8 64.6 6.7 100.8 27.6l2.5 1.4-29.8 17.2-2.5-1.4c-22.4-13-41.6-18.4-62.2-17.8-5.8.2-11.7.8-17.7 2.1a76.5 76.5 0 0122.7 8.7zm-7.2 50.2l1.7-1c24.8-14.4 24.9-32.1.4-46.3a79.1 79.1 0 00-28.6-9.5l-9.4-1.4 8.7-2.5a119 119 0 0129-4.6c21.9-.7 42.1 4.8 65 17.6l19.6-11.4c-33.5-18.9-62.1-26.6-92.6-25A177.5 177.5 0 0043.2 268l-2.3 1.3c-29.5 17.1-29 37.8 1.2 55.2 31.1 18 62.6 19.5 88.8 4.3M332.3 336.1l-.1 40.8c-33.5-18.9-62.1-26.6-92.6-25a177.5 177.5 0 00-81.5 23.3l.1-40.8a176.3 176.3 0 0181.5-23.3c30.4-1.6 59.1 6.1 92.6 25z"/>
  <path class="st1" d="M158.2 334.5l-.1 40.7-2.3 1.3.1-40.7z"/>
  <path class="st2" d="M247.5 370.7c-9.5.2-19.2 1.8-29 4.6l.1-40.8a119 119 0 0129-4.6v19.7l-.1 21.1.1-40.8c21.9-.7 42.1 4.8 65 17.6l-.1 40.8a120.3 120.3 0 00-65-17.6z"/>
  <path class="st1" d="M219.4 338.3l-.1 40.8-9.5-1.4.2-40.7z"/>
  <path class="st2" d="M218.7 334.5l-.2 40.8-8.7 2.4.2-40.7zM332.3 336.1l-.1 40.8-19.6 11.4.1-40.8zM186.9 348.3l-.1 40.8-1 .1.1-40.8z"/>
  <path class="st1" d="M310.2 351.9l-.1 40.8c-22.4-12.9-41.6-18.4-62.2-17.8-5.8.2-11.7.8-17.7 2.1l.1-40.8c6-1.2 11.9-1.9 17.7-2.1 20.6-.7 39.8 4.8 62.2 17.8z"/>
  <path class="st2" d="M185.9 348.4l-.1 40.8-6.3 3.6.2-40.7z"/>
  <path class="st1" d="M342.3 336.1l-.1 40.8-29.6 17.2.1-40.8z"/>
  <path class="st1" d="M312.7 353.3l-.1 40.8-2.5-1.5.1-40.7zM266.2 370.8l-.1 40.8c0-8-6.1-15.9-18.3-23a79.1 79.1 0 00-28.6-9.5l.1-40.8a79.1 79.1 0 0128.6 9.5c12.3 7.1 18.4 15 18.3 23z"/>
  <path class="st2" d="M220.6 395.2a55 55 0 00-33.9-6.1l.1-40.8c5.8-.8 11.9-.6 17.8.4l-.1 40.8.1-40.8c5.9 1.1 11.4 3 16.1 5.7l-.1 40.8zM221.7 355l-.1 40.8-1-.6.2-40.8z"/>
  <path class="st1" d="M189.5 352.2l-.1 40.7-4.8 2.8.1-40.7z"/>
  <path class="st1" d="M215.8 357.3l-.1 40.8a45.3 45.3 0 00-26.3-5.2l.1-40.8c8.9-1 18.9 1 26.3 5.2z"/>
  <path class="st1" d="M216.7 357.9l-.1 40.8-.9-.6.1-40.8zM134 403.6l.1-40.8c0-9.3 7.3-18.6 21.8-27l-.1 40.8c-14.5 8.3-21.7 17.6-21.8 27z"/>
  <path class="st2" d="M231.8 367.1l-.1 40.8c0-4.1-3.3-8.2-10-12.1l.1-40.8c6.6 3.9 10 8 10 12.1z"/>
  <path class="st1" d="M224.6 367.1l-.1 40.8c0-3.6-3.7-6.8-7.8-9.2l.1-40.8c4.1 2.4 7.8 5.6 7.8 9.2z"/>
  <path class="st2" d="M179.5 392.8c-8.9 5.2-12.6 10.5-12.6 15.4l.1-40.8c0-4.8 3.7-10.2 12.6-15.4l-.1 40.8z"/>
  <path class="st1" d="M174 408.4l.1-40.8c0-4.1 3.6-8.6 10.5-12.6l-.1 40.8c-6.9 4-10.5 8.4-10.5 12.6z"/>
  <path class="st2" d="M266.1 411.5c0 .1 0 .1 0 0l.1-23v-15.4c0-.7-.3-1.7 0-2.3v-.1l-.1 40.8zM139.9 418.2c-4-4.8-5.9-9.7-5.9-14.6l.1-40.8c0 4.9 2 9.8 5.9 14.6l-.1 40.8z"/>
  <path class="st1" d="M231.8 367.1l-.1 40.8c0 4-3.2 7.9-9.5 11.6l.1-40.8c6.3-3.7 9.4-7.6 9.5-11.6zM167 408.2l.1-40.8c0 4.7 3.4 8.9 8.7 12l-.1 40.8c-5.3-3.1-8.8-7.3-8.7-12zM177 380.1l-.1 40.8-1.2-.7.1-40.8zM222.3 378.7l-.1 40.7-3.3 2 .1-40.8z"/>
  <path class="st1" d="M221.7 355c13.2 7.6 13.4 16.2.6 23.7l-3.3 1.9a43.8 43.8 0 01-42-.5l-1.2-.7c-10.8-6.2-13.8-17.1 3.8-27.4l6.2-3.6 1-.1c11.5-1.6 24.5.7 33.9 6.1l1 .6zm-7.7 22.7l3.3-1.9c12.5-7.3 6.6-13.8-.5-17.9l-1-.6a45.3 45.3 0 00-26.3-5.2l-4.8 2.8c-12.5 7.3-14 15.7-3.9 21.6l1.2.7a32.5 32.5 0 0032 .5"/>
  <path class="st1" d="M219 380.6l-.1 40.8a43.8 43.8 0 01-42-.5l.1-40.8a43.8 43.8 0 0042 .5z"/>
  <path class="st2" d="M266.1 411.6c-.1 8-6.3 16-18.7 23.2l.1-40.8c12.4-7.2 18.6-15.2 18.7-23.2l-.1 40.8z"/>
  <path class="st2" d="M247.6 394.1l-.1 40.7-1.8 1.1.1-40.8z"/>
  <path class="st1" d="M273.3 370.8l-.1 40.8c0 9.1-6.9 18.2-20.7 26.2l.1-40.8c13.7-8 20.6-17.1 20.7-26.2z"/>
  <path class="st1" d="M252.6 397l-.1 40.8-1.7 1 .1-40.8z"/>
  <path class="st2" d="M157 431.7a64.2 64.2 0 01-17.1-13.6l.1-40.8c3.8 4.7 9.5 9.2 17.1 13.6 31 17.9 62.5 19.4 88.7 4.1l-.1 40.8c-26.2 15.3-57.7 13.8-88.7-4.1z"/>
  <path class="st1" d="M253 344.9c27.2 15.7 27 36.1-.4 52.1l-1.7 1c-29 16.9-65 15.3-98.7-4.1-16.5-9.5-25.2-20.3-25.1-31.1.1-10.5 8.3-20.9 23.9-29.9l2.3-1.3a185.8 185.8 0 0185.9-24.5c33.5-1.8 64.6 6.7 100.8 27.6l2.5 1.4-29.6 17.2-2.5-1.4c-22.4-12.9-41.6-18.4-62.2-17.8-5.8.2-11.7.8-17.7 2.1a83.5 83.5 0 0122.5 8.7zm-7.2 50.2l1.7-1c24.8-14.4 24.9-32.1.4-46.3a79.1 79.1 0 00-28.6-9.5L210 337l8.7-2.5a119 119 0 0129-4.6c21.9-.7 42.1 4.8 65 17.6l19.6-11.4c-33.5-18.9-62.1-26.6-92.6-25a177.5 177.5 0 00-81.5 23.3l-2.3 1.3c-29.5 17.1-29 37.8 1.2 55.2 31 18 62.5 19.4 88.7 4.2"/>
  <path class="st2" d="M248 347.8c24.5 14.1 24.4 31.9-.4 46.3l-1.7 1c-26.2 15.2-57.7 13.8-88.7-4.1-30.2-17.4-30.7-38.1-1.2-55.2l2.3-1.3a176.3 176.3 0 0181.5-23.3c30.4-1.6 59.1 6.1 92.6 25l-19.6 11.4a121.4 121.4 0 00-65-17.6c-9.5.2-19.2 1.8-29 4.6L210 337l9.4 1.4a77.8 77.8 0 0128.6 9.4zm-29 32.8l3.3-1.9c12.8-7.4 12.6-16.1-.6-23.7l-1-.6a55 55 0 00-33.9-6.1l-1 .1-6.2 3.6c-17.6 10.3-14.6 21.1-3.8 27.4l1.2.7a43.8 43.8 0 0042 .5"/>
  <path class="st1" d="M250.9 398l-.1 40.8c-29 16.9-65 15.3-98.7-4.1-16.5-9.5-25.2-20.3-25.1-31.1l.1-40.8c-.1 10.8 8.6 21.6 25.1 31.1 33.7 19.4 69.7 21 98.7 4.1zM314.8 226.6L309 230v7l7.2-3.3zM529.3 384.3c2.5-.8 45-17.3 45-17.3l-1.5-24.5-43.5 41.8zM535.7 374.2l-63.5-36.5 30.3-18.9 33.2 54.4M434.7 216.8c.8 0 24.2 13.6 24.2 13.6s-10.9 31.1-29.3 23.3c-18.5-7.8 5.1-36.9 5.1-36.9zM491.4 83.5l12 6.8s23.1-24.8 6.8-35.1l-16.4-10.4-50.6 32.5 14 27.8 34.2-21.6z"/>
</svg>
