<svg fill="#fff" viewBox="0 0 2836 375" xmlns="http://www.w3.org/2000/svg" fill-rule="evenodd" clip-rule="evenodd" stroke-linejoin="round" stroke-miterlimit="2">
  <path d="M0 366h110l29-136h140l18-85H156l10-45h165l19-91H75L0 366zm290 0h299l19-92H419l10-44h172l17-85H447l9-45h185l19-91H365l-75 357zm661-249C953 29 884 0 808 0c-72 0-150 37-150 118 0 59 42 82 85 97 50 16 86 20 86 46 0 23-26 34-48 34-18 0-31-1-40-9-9-9-14-21-14-40H621c-5 91 69 128 151 128 78 0 162-40 162-126 0-43-22-77-84-99-35-12-88-14-88-41 0-23 24-29 42-29 13 0 24 2 32 8s13 15 13 30h102zm50 249h110l55-266h99l19-91H976l-19 91h99l-55 266z" fill-rule="nonzero"/>
  <path d="M1395 274h151l-20 92h-301l1-5c14-107 86-135 163-171 24-12 42-21 55-31 11-9 16-18 16-33 0-14-10-31-35-31-35 0-52 26-52 55v4h-101l1-4c5-48 24-83 51-106 27-24 64-35 107-35 70 0 135 32 135 112 0 52-28 83-67 106-32 19-71 32-104 47zm141 8h-162v-8l3-1c36-17 81-31 118-53 36-21 63-50 63-99 0-75-61-104-127-104-41 0-76 10-102 33-25 21-42 53-48 96h84c2-32 21-59 60-59 31 0 43 22 43 39s-6 29-19 40c-13 10-32 19-57 31-73 35-143 60-158 161h286l16-76z"/>
  <path d="M1551 366h110l29-136h140l18-85h-141l10-45h165l19-91h-275l-75 357zm290 0h299l19-92h-189l10-44h172l17-85h-171l9-45h186l18-91h-295l-75 357zm661-249c2-88-67-117-143-117-72 0-150 37-150 118 0 59 42 82 86 97 49 16 86 20 86 46 0 23-27 34-48 34-18 0-31-1-41-9-9-9-13-21-13-40h-107c-5 91 70 128 152 128 77 0 161-40 161-126 0-43-21-77-83-99-35-12-89-14-89-41 0-23 24-29 43-29 12 0 24 2 32 8s13 15 12 30h102zm50 249h110l55-266h99l19-91h-308l-19 91h99l-55 266z" fill-rule="nonzero"/>
</svg>
