<svg xmlns="http://www.w3.org/2000/svg" viewBox="0 0 928 119">
  <path fill="#fff" d="M55.2 31.6L51.3 51h47.5l-5.9 29H45.7l-7.4 36.4H0L22.7 2.7h92.5l-5.8 28.9zm99.9 0l-2.6 13.3h48.1l-5.5 27.6h-48.3l-3 15H201l-5.8 28.9h-94.6L123.3 2.7h92.4L210 31.6zM251 119q-14.8 0-27.8-3-13-3.3-21.5-8.5l14.8-28.3q18.4 10.6 38.3 10.6 7.3 0 11.2-1.8 4-1.8 4-5 0-2.8-4.1-4.6-4-1.8-12.5-4-11.4-2.8-18.9-5.8-7.4-3-13.1-9.2-5.6-6.4-5.6-16.6 0-12.8 6.9-22.4 7-9.8 20-15 13-5.3 30.7-5.3 12.6 0 23.5 2.6 11 2.4 19 7.1l-13.8 28q-6.6-4.3-14.8-6.4-8-2.1-16.4-2.1-8 0-12.3 2.3-4.4 2.3-4.4 5.3 0 3.1 3.9 5 4 1.7 13.1 3.8 11.1 2.6 18.6 5.5 7.6 3 13.1 9.1 5.6 6.2 5.6 16.3 0 12.7-7 22.3-7 9.5-20 14.9-13 5.2-30.6 5.2zm97-86.6h-33.3l6-29.7h105l-6 29.7h-33.3l-16.8 84h-38.3zm115.3-.8l-2.6 13.3h48l-5.5 27.6H455l-3 15h57l-5.8 28.9h-94.5L431.4 2.7H524l-6 28.9zM656.6 2.7l-70.8 113.7H548L522.7 2.7h39.4L576.2 69l41.1-66.3zm-.6 0h38.3l-22.8 113.7h-38.3zm52.5 0h38.3l-16.7 84h51.3l-6 29.7h-89.7zm173.5 84h37l-6 29.7h-91.2l4.7-23.6 47.7-36.5q7.4-5.9 10.2-9.8 3-3.9 3-8 0-3.7-3-6-2.8-2.2-7.5-2.2-5 0-9.7 2.9-4.6 2.8-8.3 8l-25.5-15.8Q839.9 13.9 853 7q13.2-7 29.6-7 12.5 0 22.6 4.3 10 4.2 15.7 11.7 5.7 7.3 5.7 16.6 0 10.8-6 20.1t-21.1 20.6z"/>
</svg>
